<?xml version="1.0" standalone="no"?><!DOCTYPE svg PUBLIC "-//W3C//DTD SVG 1.1//EN" "http://www.w3.org/Graphics/SVG/1.1/DTD/svg11.dtd"><svg t="1545817815543" class="icon" style="" viewBox="0 0 1024 1024" version="1.1" xmlns="http://www.w3.org/2000/svg" p-id="104296" xmlns:xlink="http://www.w3.org/1999/xlink" width="2200" height="2200"><defs><style type="text/css"></style></defs><path d="M739.913143 169.077029c14.833371 0 26.8288-9.157486 26.8288-20.48V20.48c0-11.322514-11.995429-20.48-26.8288-20.48-14.804114 0-26.770286 9.157486-26.770286 20.48v128.175543c0 11.264 11.966171 20.421486 26.770286 20.421486z m-455.826286 0c14.804114 0 26.770286-9.157486 26.770286-20.48V20.48c0-11.322514-11.966171-20.48-26.770286-20.48-14.833371 0-26.8288 9.157486-26.8288 20.48v128.175543c0 11.264 11.936914 20.421486 26.8288 20.421486z m601.819429-101.112686h-88.970972v70.919314c0 26.945829-25.102629 48.888686-56.056685 48.888686-30.895543 0-56.056686-21.942857-56.056686-48.888686V67.964343H339.178057v70.919314c0 26.945829-25.161143 48.888686-56.056686 48.888686s-56.056686-21.942857-56.056685-48.888686V67.964343h-88.941715C78.116571 67.964343 29.257143 110.592 29.257143 162.933029v766.1568C29.257143 981.372343 78.116571 1024 138.122971 1024h747.812572c60.035657 0 108.836571-42.627657 108.836571-94.968686V162.933029C994.742857 110.592 945.883429 67.964343 885.906286 67.964343z m37.975771 846.613943c0 16.881371-17.086171 30.661486-38.005028 30.661485H138.122971c-21.006629 0-38.005029-13.780114-38.005028-30.661485V336.778971h823.764114V914.578286z m-505.2416-116.5312c10.415543-18.958629 17.378743-44.412343 20.831086-76.214857h196.286171v31.246628c0 21.123657-11.351771 31.714743-34.084571 31.714743-21.504 0-46.6944-0.848457-75.512686-2.633143 6.9632 22.030629 12.668343 44.324571 16.9984 66.881829 44.997486 0.438857 77.063314 0.058514 96.226743-1.082515 19.104914-1.141029 34.055314-8.309029 44.821943-21.474742 10.795886-13.165714 16.1792-32.446171 16.1792-57.782858V444.357486H378.997029v168.901485c0 51.8144-3.4816 90.433829-10.386286 115.858286-6.875429 25.365943-23.405714 51.2-49.444572 77.385143 18.666057 14.774857 37.566171 30.72 56.788115 47.806171 18.0224-18.578286 32.270629-37.302857 42.686171-56.261485z m24.9856-295.087543h192.131657v50.819657h-192.131657v-50.819657z m0 109.421714h192.131657v50.819657h-192.804571c0.438857-25.482971 0.672914-42.3936 0.672914-50.819657z" p-id="104297"></path></svg>