<?xml version="1.0" standalone="no"?><!DOCTYPE svg PUBLIC "-//W3C//DTD SVG 1.1//EN" "http://www.w3.org/Graphics/SVG/1.1/DTD/svg11.dtd"><svg t="1531453116101" class="icon" style="" viewBox="0 0 1024 1024" version="1.1" xmlns="http://www.w3.org/2000/svg" p-id="2511" xmlns:xlink="http://www.w3.org/1999/xlink" width="48" height="48"><defs><style type="text/css"></style></defs><path d="M860.928 286.912h-688c-61.76 0-112 50.24-112 112v424c0 61.76 50.24 112 112 112h688c61.744 0 112-50.24 112-112v-424c0-61.776-50.256-112-112-112z m48 536c0 26.464-21.536 48-48 48h-688c-26.464 0-48-21.536-48-48v-424c0-26.464 21.536-48 48-48h688c26.464 0 48 21.536 48 48v424z" fill="" p-id="2512"></path><path d="M665.84 584c13.824 0 25.072-11.232 25.072-25.072s-11.248-25.088-25.072-25.088H572l95.696-95.68c9.792-9.808 9.792-25.68 0-35.472-9.792-9.808-25.664-9.808-35.472 0L518.288 516.656 404.32 402.688c-9.792-9.808-25.664-9.808-35.472 0-9.792 9.776-9.792 25.664 0 35.472l95.696 95.68H368c-13.856 0-25.072 11.248-25.072 25.088S354.144 584 368 584h123.84v55.264H368c-13.856 0-25.072 11.232-25.072 25.088 0 13.84 11.216 25.056 25.072 25.056h123.84v118.16c0 13.84 11.216 25.072 25.072 25.072 13.84 0 25.072-11.232 25.072-25.072v-118.16h123.84c13.824 0 25.072-11.216 25.072-25.056 0-13.856-11.248-25.088-25.072-25.088h-123.84V584H665.84zM175.92 247.168h682c17.664 0 32-14.336 32-32 0-17.68-14.336-32-32-32h-682c-17.664 0-32 14.32-32 32 0 17.664 14.336 32 32 32zM260.928 144.512h512c17.664 0 32-14.336 32-32 0-17.68-14.336-32-32-32h-512c-17.664 0-32 14.32-32 32 0 17.664 14.32 32 32 32z" fill="" p-id="2513"></path></svg>