<?xml version="1.0" standalone="no"?><!DOCTYPE svg PUBLIC "-//W3C//DTD SVG 1.1//EN" "http://www.w3.org/Graphics/SVG/1.1/DTD/svg11.dtd"><svg t="1545876155333" class="icon" style="" viewBox="0 0 1024 1024" version="1.1" xmlns="http://www.w3.org/2000/svg" p-id="3487" xmlns:xlink="http://www.w3.org/1999/xlink" width="2200" height="2200"><defs><style type="text/css"></style></defs><path d="M529.481124 0.29858A511.85071 511.85071 0 1 0 1023.70142 529.779703 511.85071 511.85071 0 0 0 529.481124 0.29858z m-56.872302 909.956818A398.106108 398.106108 0 1 1 909.956818 553.66607 398.106108 398.106108 0 0 1 470.33393 910.255398z" p-id="3488"></path><path d="M389.575263 361.437692h315.641271a1031.663543 1031.663543 0 0 1-49.478902 113.744602 197.346885 197.346885 0 0 1 43.222949 15.924244c14.786798-34.123381 32.417212-77.34633 52.322517-129.100123v-42.085503h-341.233807c10.237014-21.611474 19.905305-43.222949 29.573597-65.971869L398.106108 236.887352a771.757126 771.757126 0 0 1-138.199692 237.726219 221.233251 221.233251 0 0 1 37.535719 27.867428 1001.521223 1001.521223 0 0 0 92.133128-141.043307z" p-id="3489"></path><path d="M536.874523 487.6942V392.148734h-45.497841c0 42.654226 0 73.933991-3.412338 94.976743q-17.06169 182.560087-255.925355 257.631524c15.355521 18.199136 26.729982 32.417212 34.692103 42.654226 139.905861-52.322517 222.93942-127.962678 249.100679-227.489204a341.233807 341.233807 0 0 0 237.726219 220.095805c10.237014-14.786798 21.611474-29.573597 33.554658-44.929118a319.622332 319.622332 0 0 1-250.238125-247.39451z" p-id="3490"></path></svg>