<?xml version="1.0" standalone="no"?><!DOCTYPE svg PUBLIC "-//W3C//DTD SVG 1.1//EN" "http://www.w3.org/Graphics/SVG/1.1/DTD/svg11.dtd"><svg t="1545816490972" class="icon" style="" viewBox="0 0 1024 1024" version="1.1" xmlns="http://www.w3.org/2000/svg" p-id="83937" xmlns:xlink="http://www.w3.org/1999/xlink" width="2200" height="2200"><defs><style type="text/css"></style></defs><path d="M809.803593 124.850519h-59.560514V95.073332c0-16.45067-13.332656-29.783327-29.777187-29.783327-16.45067 0-29.783327 13.332656-29.783327 29.783327v29.777187H333.316411V95.073332c0-16.45067-13.332656-29.783327-29.783326-29.783327-16.445554 0-29.777187 13.332656-29.777187 29.783327v29.777187h-59.565631c-65.785286 0-119.120005 53.335742-119.120005 119.126145v595.612303c0 65.785286 53.335742 119.120005 119.120005 119.120004h595.612303c65.790402 0 119.126144-53.335742 119.126144-119.120004V243.976664c0-65.791425-53.334719-119.126144-119.125121-119.126145z m59.565631 714.738448c0 32.895201-26.670429 59.560514-59.565631 59.560514H214.190267c-32.895201 0-59.560514-26.665313-59.560514-59.560514V243.976664c0-32.896224 26.665313-59.565631 59.560514-59.565631h59.565631v29.783327c0 16.445554 13.331633 29.783327 29.777187 29.783327 16.45067 0 29.783327-13.33675 29.783326-29.783327v-29.783327h357.366154v29.783327c0 16.445554 13.332656 29.783327 29.783327 29.783327 16.444531 0 29.777187-13.33675 29.777187-29.783327v-29.783327h59.560514c32.896224 0 59.565631 26.670429 59.565631 59.565631v595.612303z m0 0" p-id="83938"></path><path d="M396.807445 371.971803l-96.191806 96.308463-37.047778-37.104059c-11.461029-10.128685-28.819372-9.592472-39.634696 1.22285-10.8143 10.815323-11.350512 28.173666-1.221827 39.634696l61.227479 61.286832a29.000498 29.000498 0 0 0 31.6877 6.076392 31.541367 31.541367 0 0 0 12.68695-7.501858l114.176413-114.240881c12.565177-12.636808 12.565177-33.044604 0-45.681412-12.637832-12.561084-33.045627-12.561084-45.682435-0.001023z m144.972812 80.467683h-59.560514c-16.45067 0-29.783327 13.332656-29.783327 29.777187 0 16.45067 13.332656 29.783327 29.783327 29.783327h59.560514c16.445554 0 29.783327-13.332656 29.783327-29.783327-0.001023-16.444531-13.337773-29.777187-29.783327-29.777187z m208.462822 0h-59.560514c-16.445554 0-29.783327 13.332656-29.783327 29.777187 0 16.45067 13.337773 29.783327 29.783327 29.783327h59.560514c16.45067 0 29.783327-13.332656 29.783327-29.783327 0-16.444531-13.332656-29.777187-29.783327-29.777187zM541.780257 631.120005h-59.560514c-16.45067 0-29.783327 13.337773-29.783327 29.783327s13.332656 29.783327 29.783327 29.783326h59.560514c16.445554 0 29.783327-13.337773 29.783327-29.783326s-13.337773-29.783327-29.783327-29.783327z m208.462822 0h-59.560514c-16.445554 0-29.783327 13.337773-29.783327 29.783327s13.337773 29.783327 29.783327 29.783326h59.560514c16.45067 0 29.783327-13.337773 29.783327-29.783326s-13.332656-29.783327-29.783327-29.783327z m-416.926668 0h-59.560513c-16.45067 0-29.783327 13.337773-29.783327 29.783327s13.332656 29.783327 29.783327 29.783326h59.560513c16.445554 0 29.777187-13.337773 29.777188-29.783326s-13.331633-29.783327-29.777188-29.783327z m0 0" p-id="83939"></path></svg>