<?xml version="1.0" standalone="no"?><!DOCTYPE svg PUBLIC "-//W3C//DTD SVG 1.1//EN" "http://www.w3.org/Graphics/SVG/1.1/DTD/svg11.dtd"><svg t="1545989342751" class="icon" style="" viewBox="0 0 1024 1024" version="1.1" xmlns="http://www.w3.org/2000/svg" p-id="38625" xmlns:xlink="http://www.w3.org/1999/xlink" width="2200" height="2200"><defs><style type="text/css"></style></defs><path d="M661.260465 420.696528c-8.461719-8.461719-22.458501-8.461719-31.246654 0L511.861854 538.847461l-118.150934-118.150933c-8.461719-8.461719-22.458501-8.461719-31.246655 0-8.461719 8.461719-8.461719 22.458501 0 31.246655l99.923804 99.923803h-82.672908c-12.043291 0-22.13309 9.764388-22.13309 21.807679s9.764388 21.806655 22.13309 21.806655h110.989837v65.422012H379.716184c-12.043291 0-22.13309 9.764388-22.133089 21.807678s9.764388 21.806655 22.133089 21.806655h110.989837v66.724681c0 12.043291 9.764388 22.13309 21.807679 22.133089 12.042267 0 21.806655-9.764388 21.806655-22.133089v-66.724681h110.012579c12.043291 0 22.13309-9.764388 22.13309-21.807678s-9.764388-21.806655-22.13309-21.806655H534.320355v-65.422012h110.012579c12.043291 0 22.13309-9.764388 22.13309-21.807679 0-12.042267-9.764388-21.806655-22.13309-21.806655h-82.672907l99.923803-99.923803c8.462742-8.788154 8.462742-22.783913-0.323365-31.246655zM710.525496 314.842665h-397.042805c-11.256368 0-20.466124-9.209756-20.466124-20.466124v-8.18645c0-11.256368 9.209756-20.466124 20.466124-20.466124h397.042805c11.256368 0 20.466124 9.209756 20.466124 20.466124v8.18645c0 11.256368-9.209756 20.466124-20.466124 20.466124z" p-id="38626"></path><path d="M242.246253 797.629319V241.99145c0-20.173458 32.126698-44.578288 58.524928-44.578288h71.870888v-50.804083H284.086174c-51.79976 0-91.895967 39.845497-91.895967 91.14793v564.105728c0 51.302433 40.096207 91.14793 91.895967 91.14793H463.71632v-50.804083H300.771181c-26.39823 0.001023-58.524928-24.40483-58.524928-44.577265zM755.120157 146.609079H651.123594v50.554396h103.996563c8.966209 0 24.654516 0 24.654516 40.594557v564.105728c0 40.594557-15.688307 40.594557-24.654516 40.594557H560.049343v50.554396h195.070814c47.816029 0 76.455299-33.869389 76.455299-91.147929v-564.107775c0-57.278541-28.639271-91.14793-76.455299-91.14793z" p-id="38627"></path><path d="M589.775364 124.107599h-155.542542c-11.256368 0-20.466124 9.209756-20.466124 20.466124V270.841521c0 11.256368 9.209756 20.466124 20.466124 20.466124h155.542542c11.256368 0 20.466124-9.209756 20.466124-20.466124V144.573723c0-11.256368-9.209756-20.466124-20.466124-20.466124z m-77.771271 110.922299c-21.195741 0-38.378076-17.182334-38.378075-38.378076 0-21.195741 17.182334-38.378076 38.378075-38.378076s38.378076 17.182334 38.378076 38.378076c0 21.195741-17.182334 38.378076-38.378076 38.378076z" p-id="38628"></path></svg>