<?xml version="1.0" standalone="no"?><!DOCTYPE svg PUBLIC "-//W3C//DTD SVG 1.1//EN" "http://www.w3.org/Graphics/SVG/1.1/DTD/svg11.dtd"><svg t="1531454352129" class="icon" style="" viewBox="0 0 1024 1024" version="1.1" xmlns="http://www.w3.org/2000/svg" p-id="18201" xmlns:xlink="http://www.w3.org/1999/xlink" width="48" height="48"><defs><style type="text/css"></style></defs><path d="M153.6 819.2V204.8c0-30.72 20.48-51.2 51.2-51.2h153.6V51.2H153.6c-56.32 0-102.4 46.08-102.4 102.4v716.8c0 56.32 46.08 102.4 102.4 102.4h204.8v-102.4H204.8c-30.72 0-51.2-20.48-51.2-51.2z m563.2-409.6c0-87.04-66.56-153.6-153.6-153.6H358.4v512h102.4v-204.8h102.4c87.04 0 153.6-66.56 153.6-153.6z m-153.6 51.2H460.8V358.4h102.4c30.72 0 51.2 20.48 51.2 51.2s-20.48 51.2-51.2 51.2z m307.2-409.6h-204.8v102.4h153.6c30.72 0 51.2 20.48 51.2 51.2v614.4c0 30.72-20.48 51.2-51.2 51.2h-153.6v102.4h204.8c56.32 0 102.4-46.08 102.4-102.4V153.6c0-56.32-46.08-102.4-102.4-102.4z" p-id="18202"></path></svg>