<?xml version="1.0" standalone="no"?><!DOCTYPE svg PUBLIC "-//W3C//DTD SVG 1.1//EN" "http://www.w3.org/Graphics/SVG/1.1/DTD/svg11.dtd"><svg t="1545817971266" class="icon" style="" viewBox="0 0 1024 1024" version="1.1" xmlns="http://www.w3.org/2000/svg" p-id="109675" xmlns:xlink="http://www.w3.org/1999/xlink" width="2200" height="2200"><defs><style type="text/css"></style></defs><path d="M444.904 425.003h276.087c18.714 0 34.093-15.386 33.835-34.1 0-18.712-15.379-34.092-34.093-34.092H444.904c-18.712 0-34.099 15.379-34.099 34.092 0 18.714 15.387 34.1 34.099 34.1zM444.904 287.342h276.087c18.714 0 34.093-15.384 33.835-34.099 0-18.713-15.379-34.091-34.093-34.091H444.904c-18.712 0-34.099 15.378-34.099 34.091 0 18.715 15.387 34.099 34.099 34.099z" p-id="109676"></path><path d="M890.977 621.339c0.147-1.279 0.231-2.577 0.231-3.895V167.795c0-56.651-46.144-103.051-103.058-103.051H376.204c-53.038 0.24-96.342 39.982-102.326 90.962h-34.824c-56.651 0-103.051 46.143-103.051 103.051v363.142c-40.041 14.107-68.959 52.298-68.959 97.217v137.143c0 56.657 46.142 103.057 103.051 103.057h686.762c56.651 0 103.051-46.142 103.051-103.057V719.115c1.231-45.356-28.114-84.114-68.931-97.776zM375.43 133.703h413.494c18.715 0 34.093 15.378 34.093 34.092v448.27H611.271c-14.354 0-28.197 8.715-33.067 22.558-9.483 26.913-34.608 46.144-64.856 46.144s-55.626-19.23-65.114-46.144c-4.871-13.843-18.199-22.558-33.067-22.558h-73.829v-448.27c-0.001-18.714 15.378-34.092 34.092-34.092z m-136.375 90.96h34.092v391.402h-68.186V258.757c0-18.715 15.379-34.094 34.094-34.094zM858.65 873.264H170.862c-18.712 0-34.092-15.378-34.092-34.092V701.513c0-18.713 15.379-34.092 34.092-34.092h223.54c23.584 41.271 68.19 68.958 118.946 68.958 50.755 0 95.362-27.434 118.946-68.958h225.842c18.713 0 34.098 15.379 34.098 34.092l0.511 137.659c-0.001 18.714-15.381 34.092-34.095 34.092z" p-id="109677"></path><path d="M444.904 564.353h276.087c18.714 0 34.093-15.386 33.835-34.1 0-18.712-15.379-34.091-34.093-34.091H444.904c-18.712 0-34.099 15.379-34.099 34.091 0 18.714 15.387 34.1 34.099 34.1z" p-id="109678"></path></svg>