<?xml version="1.0" standalone="no"?><!DOCTYPE svg PUBLIC "-//W3C//DTD SVG 1.1//EN" "http://www.w3.org/Graphics/SVG/1.1/DTD/svg11.dtd"><svg t="1545879191338" class="icon" style="" viewBox="0 0 1024 1024" version="1.1" xmlns="http://www.w3.org/2000/svg" p-id="34040" xmlns:xlink="http://www.w3.org/1999/xlink" width="2200" height="2200"><defs><style type="text/css"></style></defs><path d="M403.65056 93.866667H153.565867c-32.9472 0-59.733333 26.786133-59.733334 59.733333v248.490667c0 32.9472 26.786133 59.733333 59.733334 59.733333h250.082986c32.9472 0 59.733333-26.786133 59.733334-59.733333V153.6c0.001707-32.9472-26.786133-59.733333-59.731627-59.733333z m-7.466667 300.757333H161.032533V161.066667h235.149654v233.557333zM870.365867 93.866667h-248.490667c-32.9472 0-59.733333 26.786133-59.733333 59.733333v248.490667c0 32.9472 26.786133 59.733333 59.733333 59.733333h248.490667c32.9472 0 59.733333-26.786133 59.733333-59.733333V153.6c0-32.9472-26.786133-59.733333-59.733333-59.733333z m-7.466667 300.757333h-233.557333V161.066667h233.557333v233.557333zM401.124693 562.176h-248.490666c-32.9472 0-59.733333 26.786133-59.733334 59.733333V870.4c0 32.9472 26.786133 59.733333 59.733334 59.733333h248.490666c32.9472 0 59.733333-26.786133 59.733334-59.733333V621.909333c0-32.9472-26.78784-59.733333-59.733334-59.733333z m-7.466666 300.757333H160.100693v-233.557333h233.557334v233.557333zM870.365867 562.176h-248.490667c-32.9472 0-59.733333 26.786133-59.733333 59.733333V870.4c0 32.9472 26.786133 59.733333 59.733333 59.733333h248.490667c32.9472 0 59.733333-26.786133 59.733333-59.733333V621.909333c0-32.9472-26.786133-59.733333-59.733333-59.733333z m-7.466667 300.757333h-233.557333v-233.557333h233.557333v233.557333z" fill="#434343" p-id="34041"></path></svg>