<?xml version="1.0" standalone="no"?><!DOCTYPE svg PUBLIC "-//W3C//DTD SVG 1.1//EN" "http://www.w3.org/Graphics/SVG/1.1/DTD/svg11.dtd"><svg t="1545794059137" class="icon" style="" viewBox="0 0 1024 1024" version="1.1" xmlns="http://www.w3.org/2000/svg" p-id="5508" xmlns:xlink="http://www.w3.org/1999/xlink" width="200" height="200"><defs><style type="text/css"></style></defs><path d="M585.8 406.7m-40.9 0a40.9 40.9 0 1 0 81.8 0 40.9 40.9 0 1 0-81.8 0Z" p-id="5509"></path><path d="M630 558.8m-40.9 0a40.9 40.9 0 1 0 81.8 0 40.9 40.9 0 1 0-81.8 0Z" p-id="5510"></path><path d="M933 380l0.1-0.4c-61.4-16.3-106.6-72.2-106.6-138.7 0-12.8 1.7-25.2 4.8-37 1.7-4.5 2.6-9.4 2.6-14.5 0-22.6-18.3-40.9-40.9-40.9-16.7 0-31.1 10-37.4 24.4l-0.5-0.2c-6.8 21.5-10.5 44.4-10.5 68.2 0 104.2 70.7 191.9 166.8 217.7 4.6 1.7 9.5 2.7 14.7 2.7 22.6 0 40.9-18.3 40.9-40.9 0-20.3-14.7-37.1-34-40.4zM70.5 641.7l-0.1 0.4C131.8 658.4 177 714.3 177 780.8c0 12.8-1.7 25.2-4.8 37-1.7 4.5-2.6 9.4-2.6 14.5 0 22.6 18.3 40.9 40.9 40.9 16.7 0 31.1-10 37.4-24.4l0.5 0.2c6.8-21.5 10.5-44.4 10.5-68.2 0-104.2-70.7-191.9-166.8-217.7-4.6-1.7-9.5-2.7-14.7-2.7-22.6 0-40.9 18.3-40.9 40.9 0.1 20.3 14.8 37.1 34 40.4zM600 71l-0.3-0.3c-44.4 45.4-115.3 57.3-173.2 24.6-11.1-6.3-21.1-13.9-29.8-22.4-3.1-3.7-6.9-6.9-11.3-9.4-19.7-11.1-44.6-4.2-55.8 15.5-8.2 14.6-6.6 32 2.8 44.6l-0.4 0.4c15.4 16.5 33.5 31 54.2 42.7 90.7 51.3 201.9 32.8 271.6-38.1 3.8-3.1 7-6.9 9.6-11.4 11.1-19.7 4.2-44.6-15.5-55.8-17.7-10-39.5-5.5-51.9 9.6zM403.5 950.7l0.3 0.3c44.4-45.4 115.3-57.3 173.2-24.6 11.1 6.3 21.1 13.9 29.8 22.4 3.1 3.7 6.9 6.9 11.3 9.4 19.7 11.1 44.6 4.2 55.8-15.5 8.2-14.6 6.6-32-2.8-44.6l0.4-0.3c-15.4-16.5-33.5-31-54.2-42.7-90.7-51.3-201.9-32.8-271.6 38.1-3.8 3.1-7 6.9-9.6 11.4-11.1 19.7-4.2 44.6 15.5 55.8 17.8 10 39.6 5.5 51.9-9.7zM166.5 209.8l-0.4 0.2c17.9 60.9-6.5 128.6-63.4 163-10.9 6.6-22.4 11.6-34.2 15-4.7 0.9-9.4 2.6-13.7 5.2-19.3 11.7-25.5 36.9-13.8 56.2 8.7 14.3 24.7 21.4 40.3 19.4l0.1 0.5c21.9-5.3 43.4-14 63.8-26.3 89.1-54 127.5-159.9 99.8-255.4-0.9-4.8-2.6-9.5-5.3-13.9-11.7-19.3-36.9-25.5-56.2-13.8-17.4 10.4-24.2 31.7-17 49.9zM837.1 812l0.4-0.2c-17.9-60.9 6.5-128.6 63.4-163 10.9-6.6 22.4-11.6 34.2-15 4.7-0.9 9.4-2.6 13.7-5.2 19.3-11.7 25.5-36.9 13.8-56.2C954 558.1 938 551 922.4 553l-0.1-0.5c-21.9 5.3-43.4 14-63.8 26.3-89.1 54-127.5 159.9-99.8 255.4 0.9 4.8 2.6 9.5 5.3 13.9 11.7 19.3 36.9 25.5 56.2 13.8 17.3-10.4 24-31.7 16.9-49.9z" p-id="5511"></path><path d="M887.1 586.2l80.7 14.2c5.6-29.2 8.5-59.3 8.5-90.1 0-32.3-3.2-63.9-9.4-94.3l-81.4 11c5.8 26.9 8.9 54.8 8.9 83.4 0 25.9-2.5 51.3-7.3 75.8zM227.4 229.9c41.4-40.5 91.6-71.9 147.6-91l-27.8-77.1c-65.9 22.7-125.2 59.6-174.4 107l54.6 61.1zM109.5 510.4c0-21.3 1.7-42.2 5-62.6l-77.6-31.3c-6.1 30.3-9.3 61.7-9.3 93.9 0 37.9 4.5 74.8 12.9 110.1l78.5-24.4c-6.3-27.6-9.5-56.3-9.5-85.7zM386.1 885.5c-51.2-15.8-97.9-41.7-137.8-75.5l-67.2 50c47.9 44 104.9 78.3 167.8 99.7l37.2-74.2zM620.3 136.1c55 17.4 104.7 46.5 146.2 84.4l49.2-65.9c-48.7-43-106.3-76.1-169.6-96.3l-25.8 77.8zM769.5 797.5c-38.6 36-84.4 64.3-135.1 82.4l13.2 82c66.2-21.3 126-56.8 175.9-102.9l-54-61.5zM591.3 545c-13.3 34.7-46.9 59.3-86.2 59.3-51 0-92.3-41.3-92.3-92.3s41.3-92.3 92.3-92.3c19.8 0 38.2 6.3 53.2 16.9l55.6-60.6c-29.8-23.9-67.6-38.2-108.8-38.2-96.2 0-174.2 78-174.2 174.2 0 96.2 78 174.2 174.2 174.2 73.8 0 136.9-45.9 162.2-110.7l-76-30.5z" p-id="5512"></path></svg>