<?xml version="1.0" standalone="no"?><!DOCTYPE svg PUBLIC "-//W3C//DTD SVG 1.1//EN" "http://www.w3.org/Graphics/SVG/1.1/DTD/svg11.dtd"><svg t="1531453569266" class="icon" style="" viewBox="0 0 1024 1024" version="1.1" xmlns="http://www.w3.org/2000/svg" p-id="11649" xmlns:xlink="http://www.w3.org/1999/xlink" width="48" height="48"><defs><style type="text/css"></style></defs><path d="M941.38368 846.626133 85.620053 846.626133c-27.569493 0-49.984853-22.4256-49.984853-49.984853L35.6352 227.54304c0-27.559253 22.411947-49.988267 49.984853-49.988267l855.760213 0c27.559253 0 49.988267 22.429013 49.988267 49.988267l0 569.09824C991.368533 824.200533 968.942933 846.626133 941.38368 846.626133zM85.620053 226.21184l-1.327787 570.42944 857.091413 1.327787c0.713387 0 1.3312-0.6144 1.3312-1.327787L942.71488 227.54304 85.620053 226.21184z" p-id="11650"></path><path d="M59.96544 582.01088l903.939413 0 0 121.64096-903.939413 0 0-121.64096Z" p-id="11651"></path><path d="M172.813653 341.009067l91.4432 0 0 48.657067-91.4432 0 0-48.657067Z" p-id="11652"></path><path d="M312.961707 341.009067l182.87616 0 0 48.657067-182.87616 0 0-48.657067Z" p-id="11653"></path></svg>