<?xml version="1.0" standalone="no"?><!DOCTYPE svg PUBLIC "-//W3C//DTD SVG 1.1//EN" "http://www.w3.org/Graphics/SVG/1.1/DTD/svg11.dtd"><svg t="1545789899256" class="icon" style="" viewBox="0 0 1024 1024" version="1.1" xmlns="http://www.w3.org/2000/svg" p-id="15681" xmlns:xlink="http://www.w3.org/1999/xlink" width="200" height="200"><defs><style type="text/css"></style></defs><path d="M949.856 467.968c-144.64-121.76-407.296-348.64-409.888-350.944l-27.936-24.032-27.808 24.032c-2.656 2.272-265.44 229.024-412.16 351.904-18.688 16.8-29.344 40.32-29.344 64.384 0 47.104 38.24 85.344 85.344 85.344l42.656 0 0 256c0 47.104 38.24 85.344 85.344 85.344l512 0c47.104 0 85.344-38.24 85.344-85.344l0-256 42.656 0c47.104 0 85.344-38.24 85.344-85.344 0-25.504-11.744-49.536-31.488-65.376zM597.344 874.656l-170.656 0 0-213.344 170.656 0 0 213.344zM768 533.344l0.096 341.344c-0.096 0-128.096 0-128.096 0l0-256-256 0 0 256-128 0 0-341.344-128.032 0c117.984-98.656 312.096-265.696 384.032-327.68 71.936 61.984 265.984 228.992 384 327.712 0 0-128 0-128-0.032z" p-id="15682"></path></svg>