<?xml version="1.0" standalone="no"?><!DOCTYPE svg PUBLIC "-//W3C//DTD SVG 1.1//EN" "http://www.w3.org/Graphics/SVG/1.1/DTD/svg11.dtd"><svg t="1545879983752" class="icon" style="" viewBox="0 0 1024 1024" version="1.1" xmlns="http://www.w3.org/2000/svg" p-id="49862" xmlns:xlink="http://www.w3.org/1999/xlink" width="2200" height="2200"><defs><style type="text/css"></style></defs><path d="M208.5 351.1c0 82.5 40.5 160 108.3 207.5-73.5 28.8-136.2 78.3-181.5 143.3-45.1 64.8-69.6 140.9-70.7 220l-0.1 5.9h71l0.1-5.8c2.6-162.1 126-298.6 287-317.4 0.2 0 18.4-1.7 40.5-1.7 15.4 0 29.1 0.8 40.8 2.3l3.1 0.4c17.3 2.5 34.1 6.3 50.4 11.4 13.4-21.9 30.4-41.4 50.1-57.9-0.4-0.2-0.9-0.3-1.3-0.5 68-47.5 108.6-125.1 108.6-207.7 0-139.6-113.6-253.2-253.2-253.2-139.6 0.2-253.1 113.7-253.1 253.4z m253.3-189.7c104.6 0 189.7 85.1 189.7 189.7s-85.1 189.7-189.7 189.7-189.7-85.1-189.7-189.7c-0.1-104.6 85-189.7 189.7-189.7zM761.8 563.5c-108.8 0-197 88.2-197 197s88.2 197 197 197 197-88.2 197-197-88.2-197-197-197z m121.9 179.9c-1.5 1.8-3.1 3-4.8 4.2l-55.5 36.6c-0.9 0.4-2.5 3.1-2.4 5.1 0 0.5 0.1 1 0.2 1.3l24.4 71.5c0.7 2.2 1.2 4.3 1.3 6.9 0 2-0.3 4.7-2.4 7.6-2 2.9-6 4.6-8.8 4.6h-0.4c-5.6-0.3-7.9-2.4-10.8-4.5L767 829.9c-0.4-0.4-1.5-0.8-2.8-0.8-1.3 0-2.4 0.5-2.9 0.9l-54.5 46.4c-2.8 2.1-5.2 4.4-10.9 4.7-3 0.2-7.4-1.7-9.4-4.8-2-3-2.3-5.6-2.3-7.7 0-2.4 0.5-4.4 1.1-6.5l21.7-71c0.1-0.3 0.2-0.7 0.2-1.2 0.2-2.1-1.6-5.2-2.6-5.6l-55.8-36.8c-1.8-1.2-3.3-2.4-4.8-4.2-1.4-1.7-3.1-4.2-3.2-8.3 0-2.6 1-5.4 2.6-7.3 1.5-1.9 3.3-2.9 4.8-3.6 3-1.3 5.5-1.4 8.2-1.5h69.2c0.6 0 2.1-0.4 3.3-1.4 1.3-0.9 2.1-2.2 2.2-2.9l20-72c0.6-2.3 1.4-4.3 2.9-6.6 1.4-2 4.4-5.4 9.9-5.5 5.5 0.1 8.5 3.5 9.9 5.5 1.5 2.2 2.2 4.3 2.9 6.5l20 72c0.1 0.6 1 1.9 2.2 2.9 1.2 1 2.7 1.4 3.4 1.4h69.2c2 0 3.9 0.2 6 0.7 2 0.6 4.6 1.5 6.9 4.4 1.5 1.8 2.6 4.7 2.6 7.2-0.1 4.4-1.9 6.9-3.3 8.6z" fill="#515151" p-id="49863"></path></svg>