<?xml version="1.0" standalone="no"?><!DOCTYPE svg PUBLIC "-//W3C//DTD SVG 1.1//EN" "http://www.w3.org/Graphics/SVG/1.1/DTD/svg11.dtd"><svg t="1545880530173" class="icon" style="" viewBox="0 0 1024 1024" version="1.1" xmlns="http://www.w3.org/2000/svg" p-id="57617" xmlns:xlink="http://www.w3.org/1999/xlink" width="2200" height="2200"><defs><style type="text/css"></style></defs><path d="M518.3 607.6c-13.9 0-26.2-7.8-32.3-20.1L353.5 321.8c-8.9-17.8-1.7-39.5 16.2-48.5 17.8-8.9 39.5-1.7 48.5 16.2L518.3 490l100.3-200.5c8.9-17.8 30.6-25.1 48.5-16.2 17.8 8.9 25.1 30.6 16.2 48.5L550.6 587.5c-6.1 12.3-18.9 20.1-32.3 20.1z" p-id="57618"></path><path d="M860.9 958.5H175.8c-20.1 0-36.2-16.2-36.2-36.2v-820c0-20.1 16.2-36.2 36.2-36.2H861c20.1 0 36.2 16.2 36.2 36.2v820c-0.1 20.1-16.2 36.2-36.3 36.2zM212 886.1h612.7V138.6H212v747.5z" p-id="57619"></path><path d="M687.1 770.2H349c-20.1 0-36.2-16.2-36.2-36.2s16.2-36.2 36.2-36.2h338.1c20.1 0 36.2 16.2 36.2 36.2s-16.1 36.2-36.2 36.2z" p-id="57620"></path></svg>