<?xml version="1.0" standalone="no"?><!DOCTYPE svg PUBLIC "-//W3C//DTD SVG 1.1//EN" "http://www.w3.org/Graphics/SVG/1.1/DTD/svg11.dtd"><svg t="1545989664146" class="icon" style="" viewBox="0 0 1024 1024" version="1.1" xmlns="http://www.w3.org/2000/svg" p-id="52376" xmlns:xlink="http://www.w3.org/1999/xlink" width="2200" height="2200"><defs><style type="text/css"></style></defs><path d="M538.6 608.5h103.2v103.2c0 4.7 1.8 9.1 5.2 12.5 3.3 3.3 7.8 5.2 12.5 5.2h17.3c4.7 0 9.1-1.8 12.5-5.2 3.3-3.3 5.2-7.8 5.2-12.5V608.5h103.2c4.6 0 9.2-1.9 12.5-5.2 3.3-3.3 5.2-7.8 5.2-12.5v-17.3c0-4.7-1.8-9.1-5.2-12.5-3.3-3.3-7.8-5.2-12.5-5.2H694.4V452.7c0-4.7-1.8-9.1-5.2-12.5-3.3-3.3-7.8-5.2-12.5-5.2h-17.3c-1.2 0-2.3 0.1-3.5 0.3-3.4 0.7-6.5 2.3-9 4.8-2.1 2.1-3.6 4.6-4.4 7.3-0.5 1.6-0.8 3.4-0.8 5.1v103.2H538.6c-4.7 0-9.1 1.8-12.5 5.2-3.3 3.3-5.2 7.8-5.2 12.5v17.3c0 4.7 1.8 9.1 5.2 12.5 3.4 3.4 7.8 5.3 12.5 5.3z" fill="" p-id="52377"></path><path d="M872.7 409.2c-37.9-44.7-89.5-75.7-146.3-88.3 1.7-5 2.6-10 2.6-14.9v-69.1c0-5.9-1.2-11.6-3.6-17.1 2.4-6 3.6-11.8 3.6-17.5 0-31.8-32.7-60.8-92-81.7-56.4-19.9-131.2-30.9-210.6-30.9s-154.2 11-210.6 30.9c-59.3 20.9-92 50-92 81.7 0 5.7 1.2 11.4 3.6 17.5-2.4 5.5-3.6 11.2-3.6 17.1v48.5c-43 19.1-66.8 42.8-68.8 68.7v7.1c0.4 4.6 1.5 9.2 3.5 14-1.9 4.4-3.1 8.9-3.5 13.6V465c2 26.1 25.8 49.9 68.9 69v65.5c0 31.8 32.7 60.8 92 81.7 56.4 19.9 131.2 30.9 210.6 30.9 2.5 0 5-0.1 7.3-0.1 47.3 85.4 136.6 138.2 234.4 138.2 71.6 0 138.9-27.9 189.5-78.5 50.6-50.6 78.5-117.9 78.5-189.5 0-63.4-22.6-124.8-63.5-173zM177.5 596.4c-0.7-2-1.1-3.9-1.1-5.6v-13.1c1.6 0.9 3.2 1.7 4.9 2.6 51.4 26.1 132 42.5 222.6 45 1.9 11.5 4.5 23 7.9 34.2-63.2-0.9-122.1-8-166.9-20-37.5-10.1-57.1-21.5-64.7-30.9h1.5l-4.2-12.2z m-69.1-138.1c-0.7-2-1.1-3.8-1.1-5.6v-30.4c55.4 29.8 149.2 48.1 250 48.1H358.5c22.4 0 45.1-1 67.5-2.9-8 16.9-14.2 34.5-18.5 52.6-16.9 0.9-33.7 1.4-50.1 1.4-137 0-227.3-27.4-246.3-51.1h1.6l-4.3-12.1z m24.3-124.8c4.1 6.4 9.4 12.4 15.6 17.9 1.8 1.6 3.6 3.1 5.5 4.6 1 0.7 1.9 1.5 2.9 2.2 2 1.4 4 2.9 6.1 4.2 2.1 1.4 4.2 2.7 6.4 4 19.6 11.7 42.5 20.4 62.7 26.5 43.1 13.2 95.8 21.7 151.7 24.6-8.7 0.2-17.4 0.4-26.2 0.4-90.7 0-175.1-12.9-220.3-33.7-9.7-4.5-17.3-9.2-22.6-14.1-0.2-0.2-0.4-0.4-0.5-0.6l-0.7-0.7c-1.5-1.5-2.7-3.1-3.8-4.9-0.2-0.3-0.4-0.6-0.5-0.9-0.1-0.1-0.1-0.2-0.2-0.3 0 0 0-0.1-0.1-0.1l-0.1-0.1c-0.9-1.8-1.3-3.4-1.3-4.6 0-0.9 0.1-1.9 0.4-2.9 2-6.9 10.8-14.4 25-21.5zM668 314.2c-54.5 0-107 16.4-151.7 47.4-28.7 2.8-57.9 4.3-86.7 4.4h-3.1c-137 0-227.3-27.4-246.3-51.1h1.6l-4.3-12c-0.7-2-1.1-3.9-1.1-5.6v-30.4c55.4 29.8 149.2 48.1 250 48.1 12.6 0 25.1-0.3 37.4-0.8C550 310.3 628 293.1 676.4 267v30.4c0 1.8-0.3 3.6-1.1 5.6l-4.1 11.4c-1-0.2-2.1-0.2-3.2-0.2z m7.2-107.3c-0.1 0.2-0.2 0.3-0.3 0.5l-0.6 0.9c-0.8 1.3-1.7 2.5-2.7 3.7l-0.1 0.1c-0.3 0.4-0.7 0.7-1 1.1l-0.7 0.7c-0.1 0.2-0.3 0.3-0.5 0.5-5.3 4.9-12.9 9.7-22.6 14.2-45.2 20.8-129.6 33.7-220.3 33.7-22.7 0-45-0.8-66.4-2.3-2.7-0.2-5.3-0.4-8-0.6-4-0.3-7.9-0.7-11.8-1-55.8-5.3-103.9-15.8-134.2-29.7-9.7-4.4-17.3-9.2-22.6-14.1-0.2-0.2-0.3-0.4-0.5-0.5-0.2-0.2-0.4-0.5-0.7-0.7-0.4-0.4-0.7-0.8-1.1-1.2-0.2-0.2-0.4-0.4-0.5-0.6-0.1-0.2-0.3-0.4-0.5-0.5-0.1-0.2-0.3-0.4-0.4-0.5-0.2-0.2-0.3-0.5-0.5-0.7-0.1-0.1-0.1-0.2-0.2-0.3-0.2-0.3-0.4-0.7-0.6-1-0.2-0.3-0.3-0.6-0.5-0.9-0.1-0.1-0.2-0.3-0.3-0.4l-0.1-0.1c-0.9-1.8-1.3-3.4-1.3-4.6 0-25.1 95.1-60.1 250-60.1s250 35 250 60.1c0.2 1-0.2 2.5-1 4.3z m-7 159.8c118.8 0 215.5 96.7 215.5 215.5S787 797.7 668.2 797.7 452.7 701 452.7 582.2s96.6-215.5 215.5-215.5z m-537 170.2c-0.4-0.1-0.9-0.2-1.3-0.4l2.9-6.6-1.6 7z" p-id="52378"></path></svg>