<?xml version="1.0" standalone="no"?><!DOCTYPE svg PUBLIC "-//W3C//DTD SVG 1.1//EN" "http://www.w3.org/Graphics/SVG/1.1/DTD/svg11.dtd"><svg t="1531459797865" class="icon" style="" viewBox="0 0 1170 1024" version="1.1" xmlns="http://www.w3.org/2000/svg" p-id="24477" xmlns:xlink="http://www.w3.org/1999/xlink" width="54.84375" height="48"><defs><style type="text/css"></style></defs><path d="M589.92 556.92c74.565-46.344 119.356-128.418 118.062-216.187-0.518-147.448-118.192-267.71-265.38-271.336-150.167 6.085-266.934 132.69-260.98 282.857 3.237 80.39 41.943 155.345 105.635 204.537-169.455 59.42-284.022 218.13-287.258 397.812H888.31C884.816 771.555 764.553 611.29 589.92 556.79v0.13z m176.057-216.317c0.13 77.414-30.551 151.72-85.051 206.479 159.875 72.882 262.791 231.981 263.827 407.65h225.508c-2.2-146.412-96.443-275.478-235.088-322.21 53.594-42.72 86.216-106.412 89.323-174.893 2.978-117.932-90.229-215.929-208.161-218.906a80.32 80.32 0 0 0-7.897 0c-19.289-0.518-38.448 2.719-56.442 9.58a531.836 531.836 0 0 1 13.981 92.3z" p-id="24478"></path></svg>