<?xml version="1.0" standalone="no"?><!DOCTYPE svg PUBLIC "-//W3C//DTD SVG 1.1//EN" "http://www.w3.org/Graphics/SVG/1.1/DTD/svg11.dtd"><svg t="1543473504535" class="icon" style="" viewBox="0 0 1024 1024" version="1.1" xmlns="http://www.w3.org/2000/svg" p-id="36082" xmlns:xlink="http://www.w3.org/1999/xlink" width="500" height="500"><defs><style type="text/css"></style></defs><path d="M519.727787 0C414.610773 0 329.07264 82.944 325.46816 186.88H80.186027c-27.306667 0-49.466027 22.016-49.466027 49.152s22.15936 49.152 49.466027 49.152h54.62016v550.912c0 103.424 70.59456 187.904 157.682346 187.904h444.177067c87.08096 0 157.67552-83.968 157.67552-187.904V285.696h49.472853c27.306667 0 49.466027-22.016 49.466027-49.152s-22.15936-49.152-49.466027-49.152h-230.331733C710.382933 82.944 624.8448 0 519.72096 0z m-101.512534 186.88A101.321387 101.321387 0 0 1 519.727787 92.16c54.10816 0 97.908053 41.472 101.000533 94.72H418.215253zM292.488533 931.84c-30.9248 0-64.928427-39.424-64.928426-95.744V285.696h574.03392v550.912c0 56.32-34.010453 95.744-64.9216 95.744H292.481707v-0.512z" p-id="36083"></path><path d="M369.431893 785.066667c21.087573 0 38.33856-20.862293 38.33856-46.946987V470.20032c0-26.077867-17.250987-46.946987-38.33856-46.946987C348.34432 423.253333 331.093333 444.115627 331.093333 470.20032v267.91936c0 26.077867 16.77312 46.946987 38.33856 46.946987z m138.97728 0c21.080747 0 38.331733-20.862293 38.331734-46.946987V470.20032c0-26.077867-17.250987-46.946987-38.331734-46.946987-21.0944 0-38.33856 20.862293-38.33856 46.946987v267.91936c0 26.077867 17.250987 46.946987 38.33856 46.946987z m146.158934 0c21.087573 0 38.33856-20.862293 38.33856-46.946987V470.20032C692.906667 444.122453 675.65568 423.253333 654.568107 423.253333c-21.087573 0-38.33856 20.862293-38.33856 46.946987v267.91936c0 26.077867 16.77312 46.946987 38.33856 46.946987z" p-id="36084"></path></svg>