<?xml version="1.0" standalone="no"?><!DOCTYPE svg PUBLIC "-//W3C//DTD SVG 1.1//EN" "http://www.w3.org/Graphics/SVG/1.1/DTD/svg11.dtd"><svg t="1545882187823" class="icon" style="" viewBox="0 0 1024 1024" version="1.1" xmlns="http://www.w3.org/2000/svg" p-id="4237" xmlns:xlink="http://www.w3.org/1999/xlink" width="2200" height="2200"><defs><style type="text/css"></style></defs><path d="M666.282667 203.776c10.24-16.042667 31.402667-20.821333 47.445333-10.581333 16.042667 10.24 20.821333 31.402667 10.581333 47.445333L356.693333 821.248c-10.24 16.042667-31.402667 20.821333-47.445333 10.581333-16.042667-10.24-20.821333-31.402667-10.581333-47.445333L666.282667 203.776zM662.186667 726.357333c28.330667 0 51.541333-23.210667 51.541333-51.541333s-23.210667-51.541333-51.541333-51.541333-51.541333 23.210667-51.541334 51.541333 22.869333 51.541333 51.541334 51.541333z m0 68.608c-66.56 0-120.149333-53.930667-120.149334-120.149333 0-66.56 53.930667-120.149333 120.149334-120.149333 66.56 0 120.149333 53.930667 120.149333 120.149333 0 66.218667-53.930667 120.149333-120.149333 120.149333z m-297.984-395.264c28.330667 0 51.541333-23.210667 51.541333-51.541333s-23.210667-51.541333-51.541333-51.541333-51.541333 23.210667-51.541334 51.541333 23.210667 51.541333 51.541334 51.541333z m0 68.608c-66.56 0-120.149333-53.930667-120.149334-120.149333 0-66.56 53.930667-120.149333 120.149334-120.149333 66.56 0 120.149333 53.930667 120.149333 120.149333 0 66.56-53.589333 120.149333-120.149333 120.149333zM512 955.733333c245.077333 0 443.733333-198.656 443.733333-443.733333S757.077333 68.266667 512 68.266667 68.266667 266.922667 68.266667 512s198.656 443.733333 443.733333 443.733333z m0 68.266667C229.376 1024 0 794.624 0 512S229.376 0 512 0s512 229.376 512 512-229.376 512-512 512z m0 0" fill="" p-id="4238"></path></svg>