<?xml version="1.0" standalone="no"?><!DOCTYPE svg PUBLIC "-//W3C//DTD SVG 1.1//EN" "http://www.w3.org/Graphics/SVG/1.1/DTD/svg11.dtd"><svg t="1543473717373" class="icon" style="" viewBox="0 0 1024 1024" version="1.1" xmlns="http://www.w3.org/2000/svg" p-id="45358" xmlns:xlink="http://www.w3.org/1999/xlink" width="500" height="500"><defs><style type="text/css"></style></defs><path d="M512 989.867c-263.499 0-477.867-214.373-477.867-477.867 0-263.499 214.373-477.867 477.872-477.867 263.493 0 477.867 214.368 477.867 477.867-0.005 263.493-214.379 477.867-477.872 477.867zM512 151.568c-198.777 0-360.497 161.715-360.497 360.497s161.721 360.497 360.497 360.497 360.497-161.715 360.497-360.497-161.721-360.497-360.497-360.497zM442.221 711.906c-23.211 0-33.801-12.015-42.315-21.67-2.517-2.857-4.905-5.559-7.466-7.744l-133.671-132.656c-10.284-10.164-16.652-24.27-16.652-39.862 0-0.044 0-0.089 0-0.132 0-15.105 5.915-29.31 16.662-40.003 10.308-10.26 24.523-16.603 40.22-16.603 0.068 0 0.137 0 0.205 0 15.26 0 29.589 5.892 40.354 16.603l103.083 102.285 241.958-241.958c10.070-10.085 23.991-16.324 39.369-16.324 0.064 0 0.128 0 0.192 0 0.041 0 0.1 0 0.16 0 15.386 0 29.312 6.243 39.386 16.334 21.737 21.792 21.737 57.279-0.021 79.092l-268.731 269.844c-2.365 2.556-4.325 4.724-6.209 6.816-15.598 17.296-23.424 25.98-46.257 25.98h-0.268z" fill="" p-id="45359"></path></svg>