<?xml version="1.0" standalone="no"?><!DOCTYPE svg PUBLIC "-//W3C//DTD SVG 1.1//EN" "http://www.w3.org/Graphics/SVG/1.1/DTD/svg11.dtd"><svg t="1545817222397" class="icon" style="" viewBox="0 0 1024 1024" version="1.1" xmlns="http://www.w3.org/2000/svg" p-id="95119" xmlns:xlink="http://www.w3.org/1999/xlink" width="2200" height="2200"><defs><style type="text/css"></style></defs><path d="M790.036992 237.654275c0 19.9672-15.892333 36.153705-35.492407 36.153704-19.59419 0-35.486523-16.186505-35.486523-36.153704v-90.997904c0-19.968377 15.887626-36.154881 35.486523-36.154882 19.60125 0 35.492407 16.186505 35.492407 36.154882v90.997904zM310.547674 146.491634c0-19.968377-15.89351-36.154881-35.492406-36.154881-19.600074 0-35.486523 16.186505-35.486524 36.154881v90.995551c0 19.969553 15.88645 36.156058 35.486524 36.156058 19.598897 0 35.492407-16.186505 35.492406-36.156058v-90.995551z" p-id="95120"></path><path d="M832.930759 199.288399v37.042103c0 44.038684-35.161758 79.862916-78.386174 79.862916-43.224416 0-78.386174-35.824232-78.386174-79.862916v-37.042103H353.441441v36.87619c0 44.038684-35.161758 79.864093-78.386173 79.864093-43.218533 0-78.387351-35.825409-78.387351-79.864093v-36.87619H111.547564v714.374848h804.683214V199.288399h-83.300019zM158.294981 361.714727H869.477477V863.688178H158.294981V361.714727z" p-id="95121"></path><path d="M351.142195 764.200478l-5.03269-44.294025a1097.208752 1097.208752 0 0 0 39.260159-4.8656v-83.049384h-32.884869v-40.938114h32.884869v-68.789115h-34.561648v-41.608825h108.38463v41.608825h-32.212981v68.789115h29.528958v40.938114h-29.528958v77.00945c11.518588-1.788564 23.264277-3.746571 35.233536-5.872844-1.567347 16.10649-2.574591 30.535025-3.020555 43.286781l-108.050451 17.785622z m160.060011-300.322265h40.268579v165.093877c0 68.230189-20.470822 122.141276-61.406582 161.73679a503.218386 503.218386 0 0 0-35.570068-29.864313c37.804596-32.214157 56.708071-78.630925 56.708071-139.25501v-157.711344z m-51.340025 193.280235c2.684023-41.160507 3.801875-85.453355 3.355911-132.87972h35.905423c-0.225924 44.742342-1.233168 90.15422-3.021732 136.235631-12.304615-1.787387-24.385659-2.907593-36.239602-3.355911z m85.904026 74.158338h46.304983v-90.935539h-31.542269v-40.936937h31.542269v-78.520317h-34.897004v-41.610001h115.767164v41.610001h-36.574959v78.520317h32.882515v40.936937h-32.882515v90.935539h42.950248v41.608825H545.766207v-41.608825z" p-id="95122"></path></svg>