<?xml version="1.0" standalone="no"?><!DOCTYPE svg PUBLIC "-//W3C//DTD SVG 1.1//EN" "http://www.w3.org/Graphics/SVG/1.1/DTD/svg11.dtd"><svg t="1545882569218" class="icon" style="" viewBox="0 0 1024 1024" version="1.1" xmlns="http://www.w3.org/2000/svg" p-id="11613" xmlns:xlink="http://www.w3.org/1999/xlink" width="2200" height="2200"><defs><style type="text/css"></style></defs><path d="M64 256h640c35.3 0 64-28.7 64-64V64c0-35.3-28.7-64-64-64H64C28.7 0 0 28.7 0 64v128c0 35.3 28.7 64 64 64z m0-192h640v128H64V64z" p-id="11614"></path><path d="M160 128m-32 0a32 32 0 1 0 64 0 32 32 0 1 0-64 0Z" p-id="11615"></path><path d="M160 448m-32 0a32 32 0 1 0 64 0 32 32 0 1 0-64 0Z" p-id="11616"></path><path d="M160 768m-32 0a32 32 0 1 0 64 0 32 32 0 1 0-64 0Z" p-id="11617"></path><path d="M704 704c-52.9 0-96 43.1-96 96s43.1 96 96 96 96-43.1 96-96-43.1-96-96-96z m0 128c-17.6 0-32-14.4-32-32s14.4-32 32-32 32 14.4 32 32-14.4 32-32 32z" p-id="11618"></path><path d="M1015.4 776.1c-11.1-19.3-42.5-69-93.5-113.7-29.1-25.5-60.4-45.7-93-60C789.1 584.9 747.1 576 704 576c-43.3 0-85.5 8.9-125.4 26.3-32.6 14.4-63.9 34.6-93 60.1-50.9 44.7-82 94.5-93 113.8-8.3 14.7-8.3 32.9 0 47.5 11 19.3 42 69.1 93 113.8 29 25.6 60.3 45.8 93 60.1 39.9 17.5 82.1 26.4 125.4 26.4s85.4-8.9 125.3-26.4c32.6-14.3 63.9-34.5 93-60 51-44.7 82.2-94.5 93.2-113.8 8.4-14.7 8.4-33-0.1-47.7zM880.1 889.5C826.8 936.3 767.5 960 704 960c-63.6 0-122.9-23.7-176.2-70.5-37.9-33.3-62.9-69.6-75-89.5 12.1-19.9 37.1-56.2 75-89.5C581.1 663.7 640.4 640 704 640c63.2 0 122.3 23.7 175.8 70.6 37.9 33.2 63.2 69.6 75.4 89.5-12.2 19.8-37.3 56.2-75.1 89.4zM416.3 640H64c-35.3 0-64 28.7-64 64v128c0 35.3 28.7 64 64 64h299c-12.4-17.4-21.1-31.8-26.1-40.6-4.2-7.5-7.6-15.3-10-23.4H64V704h299c13.5-18.9 31.2-41.4 53.3-64zM64 576h429.6c19.2-12.5 39-23.3 59.3-32.2 48-21.1 98.9-31.8 151.1-31.8H64V384h640v128c21.5 0 42.8 1.8 63.8 5.5 0.2-1.8 0.2-3.6 0.2-5.5V384c0-35.3-28.7-64-64-64H64c-35.3 0-64 28.7-64 64v128c0 35.3 28.7 64 64 64z" p-id="11619"></path></svg>