<?xml version="1.0" standalone="no"?><!DOCTYPE svg PUBLIC "-//W3C//DTD SVG 1.1//EN" "http://www.w3.org/Graphics/SVG/1.1/DTD/svg11.dtd"><svg t="1539690124810" class="icon" style="" viewBox="0 0 1024 1024" version="1.1" xmlns="http://www.w3.org/2000/svg" p-id="1948" xmlns:xlink="http://www.w3.org/1999/xlink" width="81" height="81"><defs><style type="text/css"></style></defs><path d="M960 886.592c-38.656 0-81.728 0-126.848 0 0-185.92-252.352-296.192-254.976-352.512-2.688-56.384 95.744-109.376 97.728-212.992 2.176-109.568-64.896-156.288-102.848-174.08 17.024-6.144 35.072-9.536 53.888-9.536 96.384 0 174.528 87.232 174.528 194.752 0 79.04-105.728 137.664-105.728 187.136C695.616 568.832 960 699.264 960 886.592zM468.544 509.504C457.536 534.72 476.352 556.928 476.352 556.928c208.192 140.416 253.824 329.6 253.824 329.6L64 886.528c0-165.76 232.256-308.544 253.76-329.6C334.848 540.16 330.88 521.344 325.312 509.312 264.896 478.72 222.656 411.136 222.656 332.224c0-107.584 78.144-194.752 174.464-194.752 96.384 0 174.528 87.232 174.528 194.752C571.584 411.264 529.216 478.976 468.544 509.504z" p-id="1949"></path></svg>