<?xml version="1.0" standalone="no"?><!DOCTYPE svg PUBLIC "-//W3C//DTD SVG 1.1//EN" "http://www.w3.org/Graphics/SVG/1.1/DTD/svg11.dtd"><svg t="1545816335128" class="icon" style="" viewBox="0 0 1024 1024" version="1.1" xmlns="http://www.w3.org/2000/svg" p-id="82373" xmlns:xlink="http://www.w3.org/1999/xlink" width="2200" height="2200"><defs><style type="text/css"></style></defs><path d="M719.32 294.282c24.576 0 46.001-19.22 46.001-42.535v-194.087c0-23.631-21.425-42.535-46.001-42.535s-44.741 19.22-44.741 42.535v194.087c0 23.631 20.165 42.535 44.741 42.535zM630.154 122.25h-225.91v64.591h225.91v-64.591zM894.503 122.25h-83.81v64.276h87.276c25.521 0 47.262 20.795 47.262 45.371v149.346h-855.749v-149.346c0-24.576 21.74-45.371 47.262-45.371h87.591v-64.276h-83.495c-64.906 0-118.154 51.042-118.154 113.428v655.99c0 62.385 51.358 113.113 116.263 113.113h755.554c64.906 0 118.154-51.042 118.154-113.113v-655.99c0-62.385-53.248-113.428-118.154-113.428zM944.915 895.134c0 24.576-21.74 45.371-47.262 45.371h-760.596c-25.521 0-47.262-20.795-47.262-45.371v-449.93h855.434l-0.315 449.93zM268.76 638.976c37.494 0 67.742-28.987 67.742-64.906s-30.247-64.906-67.742-64.906-67.742 28.987-67.742 64.906c0 35.919 30.247 64.906 67.742 64.906zM516.726 638.976c37.494 0 67.742-28.987 67.742-64.906s-30.247-64.906-67.742-64.906-67.742 28.987-67.742 64.906c0 35.919 30.247 64.906 67.742 64.906zM267.5 875.914c37.494 0 67.742-28.987 67.742-64.906s-30.247-64.906-67.742-64.906-67.742 28.987-67.742 64.906c0 35.919 30.562 64.906 67.742 64.906zM516.726 875.914c37.494 0 67.742-28.987 67.742-64.906s-30.247-64.906-67.742-64.906-67.742 28.987-67.742 64.906c0 35.919 30.247 64.906 67.742 64.906zM764.376 638.976c37.494 0 67.742-28.987 67.742-64.906s-30.247-64.906-67.742-64.906-67.742 28.987-67.742 64.906c0 35.919 30.247 64.906 67.742 64.906zM314.131 294.282c24.576 0 46.001-19.22 46.001-42.535v-194.087c0-23.631-21.425-42.535-46.001-42.535s-44.741 19.22-44.741 42.535v194.087c0 23.631 20.165 42.535 44.741 42.535z" fill="" p-id="82374"></path></svg>