<?xml version="1.0" standalone="no"?><!DOCTYPE svg PUBLIC "-//W3C//DTD SVG 1.1//EN" "http://www.w3.org/Graphics/SVG/1.1/DTD/svg11.dtd"><svg t="1545880225631" class="icon" style="" viewBox="0 0 1024 1024" version="1.1" xmlns="http://www.w3.org/2000/svg" p-id="53703" xmlns:xlink="http://www.w3.org/1999/xlink" width="2200" height="2200"><defs><style type="text/css"></style></defs><path d="M713.446012 556.554752c31.621185-51.390437 50.615794-115.094318 50.615794-184.372148 0-169.753195-112.588241-307.35718-251.474428-307.35718-138.889257 0-251.474428 137.603984-251.474428 307.35718 0 69.278853 18.99154 132.982734 50.615794 184.372148-129.96705 61.683874-218.268142 181.089381-218.268142 318.573639l0 27.941376c0 30.863938 25.024953 55.885821 55.882751 55.885821l726.483956 0c30.861892 0 55.882751-25.021883 55.882751-55.885821l0-27.941376C931.711084 737.629807 843.407945 618.238626 713.446012 556.554752zM512.587378 148.646482c90.86652 0 167.647231 102.366436 167.647231 223.535099 0 121.163547-76.780711 223.529983-167.647231 223.529983-90.868567 0-167.649278-102.366436-167.649278-223.529983C344.9381 251.012917 421.718811 148.646482 512.587378 148.646482zM177.287799 875.128391c0-110.891599 77.957513-206.747761 190.570313-251.842819 40.956807 35.326577 90.810239 56.255235 144.729266 56.255235 53.919027 0 103.772458-20.928658 144.726196-56.255235 112.61587 45.095058 190.57236 140.951219 190.57236 251.842819L177.287799 875.128391z" p-id="53704"></path></svg>