<?xml version="1.0" standalone="no"?><!DOCTYPE svg PUBLIC "-//W3C//DTD SVG 1.1//EN" "http://www.w3.org/Graphics/SVG/1.1/DTD/svg11.dtd"><svg t="1540283809440" class="icon" style="" viewBox="0 0 1024 1024" version="1.1" xmlns="http://www.w3.org/2000/svg" p-id="1875" xmlns:xlink="http://www.w3.org/1999/xlink" width="200" height="200"><defs><style type="text/css"></style></defs><path d="M512.049995 1024c-280.672591 0-510.350161-229.57758-511.950005-511.850015-0.799922-136.586661 51.794942-264.874133 147.985549-361.16473C244.276145 54.694659 373.463529 1.099893 511.850015 0.09999h3.499658c134.386876 0 261.074504 52.294893 356.96514 147.585588 97.79045 97.090519 151.685187 226.477883 151.685187 364.364417 0 282.272434-229.677571 511.950005-511.950005 511.950005z m0.199981-972.705009C256.674934 53.094815 49.895127 259.674641 51.294991 511.950005c1.399863 254.175178 208.07968 460.854995 460.755004 460.854995 254.075188 0 460.755004-206.679816 460.755005-460.755005 0-124.087882-48.495264-240.576506-136.486672-328.067962-86.991505-86.391563-202.080266-133.886925-324.068352-132.687042z" fill="#ffffff" p-id="1876"></path><path d="M577.643589 285.072161l-75.392637 167.983595-73.592813-167.983595h-97.990431l123.687921 169.383459h-90.891124v56.694463h114.788791v58.094327H363.564496v55.894541h114.78879v113.888878h56.694463V625.138951H648.936627v-55.894541H535.147739v-58.094327h113.888879v-56.694463H548.446441l144.985841-169.383459H577.643589z" fill="#ffffff" p-id="1877"></path></svg>