<?xml version="1.0" standalone="no"?><!DOCTYPE svg PUBLIC "-//W3C//DTD SVG 1.1//EN" "http://www.w3.org/Graphics/SVG/1.1/DTD/svg11.dtd"><svg t="1545989390719" class="icon" style="" viewBox="0 0 1024 1024" version="1.1" xmlns="http://www.w3.org/2000/svg" p-id="40277" xmlns:xlink="http://www.w3.org/1999/xlink" width="2200" height="2200"><defs><style type="text/css"></style></defs><path d="M628.669937 597.373545H395.586059a32.063433 32.063433 0 0 1 0-64.062867h233.147876a31.999434 31.999434 0 1 1-0.063998 64.062867z m9.983823 103.998161h-253.115523a31.999434 31.999434 0 0 1 0-63.998868h253.115523a31.999434 31.999434 0 1 1 0 63.998868z" p-id="40278"></path><path d="M512.127998 845.496157a31.999434 31.999434 0 0 1-31.999434-31.999434V587.006728a31.999434 31.999434 0 1 1 63.998868 0v226.490995a31.999434 31.999434 0 0 1-31.999434 31.999434z" p-id="40279"></path><path d="M512.127998 584.893766a31.935435 31.935435 0 0 1-23.423586-10.303818l-91.58238-98.558257a31.999434 31.999434 0 0 1 46.847171-43.583229l91.58238 98.558257a31.999434 31.999434 0 0 1-23.423585 53.887047z" p-id="40280"></path><path d="M512.127998 584.893766a31.999434 31.999434 0 0 1-23.423586-53.887047l91.58238-98.558257a31.999434 31.999434 0 0 1 46.847172 43.583229l-91.582381 98.558257a31.935435 31.935435 0 0 1-23.423585 10.303818z" p-id="40281"></path><path d="M496.640272 1023.989c-209.404297 0-318.138374-78.01462-372.729408-144.253449C59.209008 801.080942 36.618407 697.082782 60.360987 587.006728c63.998868-223.996039 208.379315-315.258424 289.849874-353.977739-31.67944-25.727545-61.182918-63.486877-56.319004-126.589761A31.743439 31.743439 0 0 1 296.00382 97.286389C334.659136-1.399865 494.976301-0.055889 512.895984 0.00811a31.999434 31.999434 0 0 1 31.167449 32.76742 31.167449 31.167449 0 0 1-32.703422 31.231448c-31.807437-0.831985-130.941684 7.551866-153.917278 52.479072-1.407975 42.687245 23.423586 62.078902 63.614875 88.126441l12.415781 8.191855a31.999434 31.999434 0 1 1-4.159927 55.551018 425.20748 425.20748 0 0 1-15.999717 6.847879c-61.182918 25.343552-223.740043 92.606362-290.938854 327.290212-19.006664 88.638432-1.087981 173.371934 50.943099 236.475817 67.390808 81.98155 183.548754 124.348801 338.234018 120.892862 17.343693-1.471974 32.25543 13.759757 32.575424 31.359446a32.127432 32.127432 0 0 1-31.423444 32.639422c-5.375905 0.127998-10.815809 0.127998-16.063716 0.127998z" p-id="40282"></path><path d="M527.615724 1023.989c-5.311906 0-10.687811 0-16.063716-0.127998-17.663688-0.383993-31.743439-14.975735-31.423444-32.639422s12.99177-33.34341 32.575424-31.359446c154.813262 4.479921 270.84321-38.975311 338.234018-120.893862 52.03108-63.230882 69.949763-147.901384 50.431108-238.522781C834.618294 367.680607 672.061169 300.418797 610.878251 275.139244a335.802061 335.802061 0 0 1-15.871719-6.78388 31.999434 31.999434 0 0 1-4.223925-55.487019l12.351781-8.063857c40.255288-26.111538 65.086849-45.439196 63.678874-88.19044C643.901667 71.622843 546.559389 63.87898 512.959983 64.45597c-15.871719 1.599972-32.319428-13.503761-32.831419-31.167449A31.999434 31.999434 0 0 1 511.232014 0.457102C529.663688 0.264105 689.596859-1.462864 728.252175 97.222391a30.079468 30.079468 0 0 1 2.047964 9.215837c4.863914 63.102884-24.639564 100.798217-56.255005 126.589761 81.470559 38.719315 225.660009 129.661707 289.337883 351.865777 24.31957 112.253015 1.727969 216.123178-62.973886 294.841785C845.818096 945.97438 737.084019 1023.989 527.615724 1023.989z" p-id="40283"></path></svg>