<?xml version="1.0" standalone="no"?><!DOCTYPE svg PUBLIC "-//W3C//DTD SVG 1.1//EN" "http://www.w3.org/Graphics/SVG/1.1/DTD/svg11.dtd"><svg t="1545789648509" class="icon" style="" viewBox="0 0 1024 1024" version="1.1" xmlns="http://www.w3.org/2000/svg" p-id="7408" xmlns:xlink="http://www.w3.org/1999/xlink" width="200" height="200"><defs><style type="text/css"></style></defs><path d="M939.151543 773.479293c-0.055259 0.62831-0.104377 1.248434-0.188288 1.870604-0.249687 1.665942-0.600681 3.275603-1.036609 4.870938-0.378623 1.487887-0.822738 2.937912-1.357927 4.376681-0.273223 0.692778-0.557702 1.366114-0.865717 2.039449-3.76065 8.704243-10.247388 16.290011-19.314904 21.008476L673.572886 931.939281c-12.716626 9.317203-30.03506 11.365862-44.963051 3.593851L364.764658 796.943704 147.087986 914.477584c-19.550265 10.160407-43.173289 3.583618-55.116295-14.33959-0.190335-0.276293-0.36532-0.557702-0.549515-0.840134-0.651846-1.028423-1.421372-1.943258-1.994424-3.044336-0.398066-0.76748-0.590448-1.577938-0.936325-2.355651-0.545422-1.169639-0.991584-2.373047-1.432629-3.597945-0.400113-1.165546-0.793062-2.319835-1.085728-3.501754-0.51984-1.958608-0.851391-3.968381-1.085728-6.025227-0.047072-0.468674-0.11154-0.930185-0.141216-1.39579-0.096191-1.167592-0.350994-2.288113-0.350994-3.478218L84.395132 442.278055c0-3.862981 0.677429-7.53665 1.63729-11.098779 0.179079-0.705058 0.431835-1.381463 0.645706-2.080382 0.530073-1.620917 1.064238-3.224438 1.77646-4.755304 0.778736-1.762133 1.738597-3.422959 2.753717-5.073552 0.254803-0.396019 0.468674-0.812505 0.735757-1.197268 3.538593-5.351891 8.18645-10.06831 14.119579-13.495362l63.563688-36.745902c20.452821-11.80793 46.604434-4.802376 58.413388 15.650445 11.80793 20.452821 4.802376 46.604434-15.650445 58.410318l-42.47437 24.553209 0 338.524017 168.687934-91.082438c6.604418-4.857635 14.404058-7.701402 22.541389-8.233522 0.942465-0.085958 1.87265-0.025583 2.814092-0.049119 1.366114 0.002047 2.717901-0.060375 4.086062 0.074701 7.679913 0.549515 15.026228 3.193739 21.369703 7.609305l258.431887 135.747707 206.238155-105.569384L854.085122 415.298588c-20.409842 11.583826-46.369074 4.577249-58.123792-15.780405-11.80793-20.452821-4.800329-46.602388 15.652492-58.410318l63.563688-36.747949c1.257643-0.724501 2.584871-1.161453 3.880377-1.746784 0.632403-0.290619 1.25048-0.594541 1.90028-0.855484 1.862417-0.735757 3.735068-1.293459 5.644557-1.752924 0.900509-0.222057 1.789763-0.449231 2.712785-0.613984 1.752924-0.301875 3.495614-0.449231 5.252631-0.530073 0.769526-0.040932 1.497097-0.229221 2.276856-0.229221 0.457418 0 0.881067 0.119727 1.334391 0.135076 1.321088 0.051165 2.614547 0.222057 3.923356 0.396019 1.676176 0.207731 3.328815 0.431835 4.938476 0.827855 0.645706 0.164752 1.263783 0.398066 1.902326 0.592494 2.15099 0.63752 4.241604 1.3743 6.237051 2.328022 0.151449 0.072655 0.292666 0.164752 0.442068 0.239454 14.155395 6.969739 23.982204 21.397333 23.982204 38.242999l0 427.604868C939.604868 770.531148 939.310156 771.985266 939.151543 773.479293zM543.236422 618.292861c-7.807826 8.400321-18.863626 13.734816-31.236422 13.734816-12.370749 0-23.422456-5.332449-31.230282-13.728676-59.411111-56.135508-183.421496-188.903348-183.421496-319.964312 0-118.549 96.101755-214.653825 214.650755-214.653825s214.653825 96.103802 214.653825 214.653825C726.652801 429.391561 602.651626 562.152237 543.236422 618.292861zM512 170.876786c-70.845535 0-128.277572 57.434084-128.277572 128.279618 0 70.116941 53.677527 152.913669 91.541903 202.75789 7.429203 12.633738 21.018709 21.206998 36.735669 21.206998 15.719007 0 29.310559-8.575306 36.739762-21.213137 37.864376-49.841152 91.539856-132.636856 91.539856-202.750727C640.279618 228.310869 582.847581 170.876786 512 170.876786z" p-id="7409"></path></svg>