<?xml version="1.0" standalone="no"?><!DOCTYPE svg PUBLIC "-//W3C//DTD SVG 1.1//EN" "http://www.w3.org/Graphics/SVG/1.1/DTD/svg11.dtd"><svg t="1545881711546" class="icon" style="" viewBox="0 0 1024 1024" version="1.1" xmlns="http://www.w3.org/2000/svg" p-id="86776" xmlns:xlink="http://www.w3.org/1999/xlink" width="2200" height="2200"><defs><style type="text/css"></style></defs><path d="M90.258103 148.475964C249.063064 151.057963 384.628031 90.375978 511.154 0 636.38997 89.084978 771.954937 151.057963 933.341897 148.475964v30.985992c0 117.489971-3.873999 236.269942 1.29 353.759914 3.873999 113.614972-34.858991 210.446949-105.868974 295.659928-59.389986 72.299982-130.399968 130.399968-215.611948 170.423958-67.136984 32.276992-134.273967 33.567992-200.119951 0-145.892964-73.592982-256.926937-180.752956-309.861924-339.557917-9.037998-27.112993-12.909997-56.807986-12.909997-85.211979-1.292-135.564967-1.292-272.419933-1.292-409.2759 0-3.872999 1.291-7.746998 1.291-16.783996z m779.81981 63.262984C742.259944 201.409951 629.934971 153.639962 524.064997 89.084978c-6.454998-3.872999-20.656995-1.29-28.403993 3.873999-82.62998 45.187989-166.549959 87.793979-259.509937 107.159974-27.111993 5.164999-54.224987 10.329997-83.919979 15.492996v352.468914c0 42.60599 9.036998 83.91998 28.403993 121.361971 59.389986 113.615972 148.474964 198.828951 260.799936 262.091936 50.352988 28.403993 98.122976 24.529994 147.184964-2.582 90.375978-50.352988 163.96896-118.779971 222.067946-202.70195 40.02399-58.098986 61.971985-122.65297 60.680985-194.954953-2.581999-101.995975-1.291-203.99195-1.290999-305.987925v-33.568992z" p-id="86777"></path><path d="M480.168008 596.484854c73.591982-85.211979 144.601965-169.132959 218.194947-254.345938 20.656995 18.075996 41.31499 36.150991 63.262984 55.516987-91.666978 105.869974-182.043956 211.739948-272.419933 317.609922-59.389986-51.643987-117.489971-101.996975-178.170957-153.639962 18.074996-21.949995 34.859991-42.60699 52.934987-64.554984 38.732991 33.567992 76.173981 65.844984 116.197972 99.413975z" p-id="86778"></path></svg>