<?xml version="1.0" standalone="no"?><!DOCTYPE svg PUBLIC "-//W3C//DTD SVG 1.1//EN" "http://www.w3.org/Graphics/SVG/1.1/DTD/svg11.dtd"><svg t="1545881567730" class="icon" style="" viewBox="0 0 1024 1024" version="1.1" xmlns="http://www.w3.org/2000/svg" p-id="85307" xmlns:xlink="http://www.w3.org/1999/xlink" width="2200" height="2200"><defs><style type="text/css"></style></defs><path d="M967.68 89.6c0-20.48-17.92-38.4-38.4-38.4H94.72c-23.04 0-38.4 15.36-38.4 38.4v309.76c0 20.48 17.92 38.4 38.4 38.4H179.2v491.52c0 7.68 2.56 12.8 5.12 17.92 5.12 15.36 20.48 25.6 35.84 25.6h588.8c15.36 0 28.16-7.68 33.28-20.48 5.12-7.68 7.68-15.36 7.68-23.04V437.76h79.36c20.48 0 38.4-17.92 38.4-38.4v-2.56-307.2zM773.12 896H256V268.8h517.12V896z m76.8-627.2c20.48-2.56 33.28-17.92 33.28-38.4s-17.92-38.4-38.4-38.4H184.32c-23.04 0-38.4 17.92-38.4 38.4s15.36 35.84 33.28 38.4v92.16H133.12V128h760.32v232.96h-40.96v-92.16z" p-id="85308"></path><path d="M412.16 581.12c43.52 0 76.8-35.84 76.8-76.8 0-43.52-35.84-76.8-76.8-76.8s-76.8 35.84-76.8 76.8c-2.56 40.96 33.28 76.8 76.8 76.8z m0-104.96c15.36 0 25.6 12.8 25.6 25.6s-12.8 25.6-25.6 25.6-25.6-12.8-25.6-25.6 10.24-25.6 25.6-25.6zM535.04 706.56c0 43.52 35.84 76.8 76.8 76.8s76.8-35.84 76.8-76.8c0-43.52-35.84-76.8-76.8-76.8s-76.8 33.28-76.8 76.8z m104.96 0c0 15.36-12.8 25.6-25.6 25.6s-25.6-12.8-25.6-25.6 12.8-25.6 25.6-25.6 25.6 10.24 25.6 25.6zM366.08 750.08c5.12 5.12 12.8 7.68 17.92 7.68s12.8-2.56 17.92-7.68l250.88-250.88c10.24-10.24 10.24-25.6 0-35.84s-25.6-10.24-35.84 0l-250.88 250.88c-10.24 10.24-10.24 25.6 0 35.84z" p-id="85309"></path></svg>