<?xml version="1.0" standalone="no"?><!DOCTYPE svg PUBLIC "-//W3C//DTD SVG 1.1//EN" "http://www.w3.org/Graphics/SVG/1.1/DTD/svg11.dtd"><svg t="1545969033108" class="icon" style="" viewBox="0 0 1024 1024" version="1.1" xmlns="http://www.w3.org/2000/svg" p-id="28116" xmlns:xlink="http://www.w3.org/1999/xlink" width="2200" height="2200"><defs><style type="text/css"></style></defs><path d="M958.279183 833.060273l0-52.505841c0-16.086373-13.178137-29.129434-29.429263-29.129434L623.249757 751.424998l0 110.760616 305.601186 0C945.102069 862.131379 958.279183 849.088318 958.279183 833.060273L958.279183 833.060273M64.86124 485.240543l0 52.509934c0 16.081257 13.18223 29.125341 29.429263 29.125341l454.470749 0L548.761252 456.110085l-454.470749 0C78.043471 456.226742 64.86124 469.159286 64.86124 485.240543L64.86124 485.240543M64.86124 780.496104l0 52.505841c0 16.086373 13.18223 29.129434 29.429263 29.129434l268.358981 0L362.649484 751.423975 94.28948 751.423975C78.043471 751.47821 64.86124 764.468059 64.86124 780.496104L64.86124 780.496104M64.86124 189.984982l0 52.505841c0 16.086373 13.18223 29.129434 29.429263 29.129434l156.794046 0L251.084549 160.859641 94.28948 160.859641C78.043471 160.967088 64.86124 173.898609 64.86124 189.984982L64.86124 189.984982M288.219307 124.051317l0 184.544063c0 20.396539 16.639982 36.866652 37.242206 36.866652l111.676475 0c20.606317 0 37.246299-16.470113 37.246299-36.866652L474.384287 124.051317c0-20.396539-16.698311-36.870746-37.246299-36.870746L325.46049 87.180572C304.858266 87.072101 288.219307 103.70799 288.219307 124.051317L288.219307 124.051317M958.279183 242.602364l0-52.505841c0-16.081257-13.178137-29.129434-29.429263-29.129434L511.572258 160.967088l0 110.760616 417.277662 0C945.102069 271.620257 958.279183 258.630409 958.279183 242.602364L958.279183 242.602364M586.002434 419.248549l0 184.606485c0 20.392446 16.639982 36.862559 37.246299 36.862559l111.676475 0c20.602224 0 37.242206-16.470113 37.242206-36.862559L772.167414 419.355997c0-20.392446-16.639982-36.862559-37.242206-36.862559L623.249757 382.493437C602.642416 382.327662 586.002434 398.85201 586.002434 419.248549L586.002434 419.248549M958.279183 537.857924l0-52.505841c0-16.086373-13.178137-29.125341-29.429263-29.125341L809.356408 456.226742l0 110.649076 119.494535 0C945.102069 566.875818 958.279183 553.944298 958.279183 537.857924L958.279183 537.857924M399.895783 714.50411l0 184.548156c0 20.396539 16.639982 36.866652 37.242206 36.866652l111.676475 0c20.606317 0 37.246299-16.470113 37.246299-36.866652L586.060763 714.50411c0-20.396539-16.698311-36.862559-37.246299-36.862559L437.137988 677.641551C416.535765 677.641551 399.895783 694.107571 399.895783 714.50411L399.895783 714.50411M399.895783 714.50411" p-id="28117"></path></svg>