<?xml version="1.0" standalone="no"?><!DOCTYPE svg PUBLIC "-//W3C//DTD SVG 1.1//EN" "http://www.w3.org/Graphics/SVG/1.1/DTD/svg11.dtd"><svg t="1545819110215" class="icon" style="" viewBox="0 0 1143 1024" version="1.1" xmlns="http://www.w3.org/2000/svg" p-id="161847" xmlns:xlink="http://www.w3.org/1999/xlink" width="2455.6640625" height="2200"><defs><style type="text/css"></style></defs><path d="M817.975 1027.367c-155.244 0-281.47-126.226-281.47-281.47s126.226-281.47 281.47-281.47 281.47 126.226 281.47 281.47-126.374 281.47-281.47 281.47zM817.975 538.071c-114.591 0-207.826 93.233-207.826 207.826s93.233 207.826 207.826 207.826 207.826-93.233 207.826-207.826c-0.148-114.591-93.382-207.826-207.826-207.826zM687.773 271.18h-425.667c-20.326 0-36.823-16.497-36.823-36.823s16.497-36.823 36.823-36.823h425.667c20.326 0 36.823 16.497 36.823 36.823s-16.497 36.823-36.823 36.823zM556.095 466.929h-294.138c-20.326 0-36.823-16.497-36.823-36.823s16.497-36.823 36.823-36.823h293.99c20.326 0 36.823 16.497 36.823 36.823s-16.349 36.823-36.676 36.823zM402.030 662.53h-140.073c-20.326 0-36.823-16.497-36.823-36.823s16.497-36.823 36.823-36.823h140.073c20.326 0 36.823 16.497 36.823 36.823s-16.349 36.823-36.823 36.823z" fill="#3A3A3A" p-id="161848"></path><path d="M896.924 811.294h-113.854v-149.057c0-20.326 16.497-36.823 36.823-36.823s36.823 16.497 36.823 36.823v75.413h40.21c20.326 0 36.823 16.497 36.823 36.823s-16.497 36.823-36.823 36.823zM184.043 908.505c-9.722 0-50.667-1.915-81.155-31.52-14.581-14.141-31.814-39.917-31.814-82.482v-680.773c-0.442-9.573-0.148-51.405 29.605-83.219 14.288-15.17 40.653-33.287 85.281-33.287l587.391 0.293c2.652 0.293 26.805 3.387 51.258 17.38 35.939 20.474 55.675 54.498 55.675 95.885v344.511c0 20.326-16.497 36.823-36.823 36.823s-36.823-16.497-36.823-36.823v-344.658c0-14.434-5.154-23.713-17.233-31.077-9.28-5.596-19.296-7.954-23.124-8.69h-580.322c-14.581 0-25.038 3.241-31.373 9.722-8.69 8.987-10.162 24.45-10.016 30.048l0.148 1.473v682.099c0 20.474 7.217 27.396 9.573 29.751 10.605 10.31 29.015 10.753 29.457 10.753h347.015c20.326 0 36.823 16.497 36.823 36.823s-16.497 36.823-36.823 36.823h-345.689c-0.293 0.148-0.736 0.148-1.031 0.148z" fill="#3A3A3A" p-id="161849"></path></svg>