<?xml version="1.0" standalone="no"?><!DOCTYPE svg PUBLIC "-//W3C//DTD SVG 1.1//EN" "http://www.w3.org/Graphics/SVG/1.1/DTD/svg11.dtd"><svg t="1542944808566" class="icon" style="" viewBox="0 0 1024 1024" version="1.1" xmlns="http://www.w3.org/2000/svg" p-id="2400" xmlns:xlink="http://www.w3.org/1999/xlink" width="200" height="200"><defs><style type="text/css"></style></defs><path d="M511.999996 0c-282.770296 0-512 229.230727-512 512s229.230727 512 512 512 512-229.230727 512-512S794.769269 0 511.999996 0zM636.738151 473.05116c-0.01125 0.44797-0.243417 0.887758-0.270009 1.335728-0.400923 2.982375-0.679114 6.007707-1.826654 8.676094-0.328307 1.054468-0.242395 2.153938-0.671955 3.189996l-100.617325 257.581702c-7.091835 17.116952-25.522014 24.704827-41.163121 16.945128-15.643152-7.767881-22.57339-27.931643-15.480533-45.056777l83.035016-212.56379-139.281837 0.972647c-13.842067 0-25.514855-8.678139-30.264564-20.840831-3.526485-7.888567-4.065481-17.084224-0.506267-25.706112l74.752685-181.090321c6.880123-16.670005 25.971007-24.604596 42.641012-17.722428 16.668983 6.880123 24.602551 25.971007 17.721405 42.63999l-56.586378 137.077784 136.442648-0.949124c18.033348 0 32.652714 14.619367 32.652714 32.652714C637.314989 471.209165 636.828154 472.063172 636.738151 473.05116z" p-id="2401"></path></svg>