<?xml version="1.0" standalone="no"?><!DOCTYPE svg PUBLIC "-//W3C//DTD SVG 1.1//EN" "http://www.w3.org/Graphics/SVG/1.1/DTD/svg11.dtd"><svg t="1545881243124" class="icon" style="" viewBox="0 0 1024 1024" version="1.1" xmlns="http://www.w3.org/2000/svg" p-id="78045" xmlns:xlink="http://www.w3.org/1999/xlink" width="2200" height="2200"><defs><style type="text/css"></style></defs><path d="M380.050294 510.61956l63.11548 0 0 103.353926c0 18.975167 15.476483 34.450626 34.45165 34.450626l68.90023 0c18.975167 0 34.45165-15.47546 34.45165-34.450626l0-103.353926 62.510706 0c22.202675 0 26.643823-3.631714 7.603165-23.011086l-104.496959-104.428398c-35.121915-34.855856-34.651194-35.022655-69.642127 0l-104.361883 104.428398C353.203856 506.98887 359.730503 510.61956 380.050294 510.61956z" p-id="78046"></path><path d="M856.5078 219.168652 443.099259 219.168652c0-57.05853-46.293349-103.351879-103.351879-103.351879L167.4922 115.816772c-57.059554 0-103.351879 46.293349-103.351879 103.351879l0 103.353926 0 34.449603 0 447.860191c0 57.05853 46.292326 103.350856 103.351879 103.350856l689.014576 0c57.059554 0 103.351879-46.292326 103.351879-103.350856l0-482.309794C959.859679 265.462001 913.56633 219.168652 856.5078 219.168652zM890.959449 804.832372c0 19.006889-15.442714 34.450626-34.45165 34.450626L167.4922 839.282998c-19.007913 0-34.44858-15.443737-34.44858-34.450626l0-482.309794c0-19.009959 15.440667-34.45165 34.44858-34.45165l689.014576 0c19.008936 0 34.45165 15.441691 34.45165 34.45165L890.958426 804.832372z" p-id="78047"></path><path d="M649.804041 667.028842c0 19.007913-15.442714 34.449603-34.450626 34.449603l-206.703759 0c-19.008936 0-34.450626-15.441691-34.450626-34.449603l0-34.45165-68.9033 0 0 34.45165c0 57.05853 46.293349 103.351879 103.353926 103.351879l206.703759 0c57.059554 0 103.351879-46.293349 103.351879-103.351879l0-34.45165-68.901253 0L649.804041 667.028842z" p-id="78048"></path></svg>