<?xml version="1.0" standalone="no"?><!DOCTYPE svg PUBLIC "-//W3C//DTD SVG 1.1//EN" "http://www.w3.org/Graphics/SVG/1.1/DTD/svg11.dtd"><svg t="1540888115587" class="icon" style="" viewBox="0 0 1024 1024" version="1.1" xmlns="http://www.w3.org/2000/svg" p-id="101586" xmlns:xlink="http://www.w3.org/1999/xlink" width="500" height="500"><defs><style type="text/css"></style></defs><path d="M454.464 143.68l-253.44 253.44c-12.032 12.032-12.032 31.36 0 43.392 11.968 11.968 31.36 11.968 43.328 0l237.376-237.376 237.376 237.376c11.968 11.968 31.36 11.968 43.328 0 12.032-12.032 12.032-31.36 0-43.392l-253.44-253.44C491.264 126.016 478.016 124.032 454.464 143.68zM507.968 947.648l252.48-253.376c11.968-11.968 11.968-31.36 0-43.392-11.968-11.968-31.296-11.968-43.264 0l-236.48 237.376L244.16 650.88c-11.968-11.968-31.296-11.968-43.264 0-11.968 12.032-11.968 31.424 0 43.392l252.48 253.376C465.984 960 491.136 964.48 507.968 947.648z" p-id="101587" fill="#999999"></path></svg>