<?xml version="1.0" standalone="no"?><!DOCTYPE svg PUBLIC "-//W3C//DTD SVG 1.1//EN" "http://www.w3.org/Graphics/SVG/1.1/DTD/svg11.dtd"><svg t="1545881495490" class="icon" style="" viewBox="0 0 1024 1024" version="1.1" xmlns="http://www.w3.org/2000/svg" p-id="83865" xmlns:xlink="http://www.w3.org/1999/xlink" width="2200" height="2200"><defs><style type="text/css"></style></defs><path d="M858.112 751.616h51.2V109.568A61.952 61.952 0 0 0 845.312 51.2H279.04a153.6 153.6 0 0 0-163.84 138.24v645.12a128 128 0 0 0 51.2 102.4 181.248 181.248 0 0 0 112.64 35.84H829.44a26.112 26.112 0 0 0 12.8-3.072 30.208 30.208 0 0 0 18.432-27.648 31.232 31.232 0 0 0-31.232-31.232 51.2 51.2 0 0 1 0-97.28h17.92v-60.416 60.416H870.4a38.4 38.4 0 0 0 38.4-38.4v-23.04h-51.2zM183.808 861.696a60.928 60.928 0 0 1-6.656-27.136V189.44c0-40.96 46.08-75.264 102.4-75.776V752.64a107.52 107.52 0 0 0-95.744 109.056z m554.496 51.2H285.696a51.2 51.2 0 0 1 0-97.28h452.096a115.2 115.2 0 0 0 0 97.28z m13.824-97.28z m94.72-61.952H339.456V113.664h507.392z" fill="#333333" p-id="83866"></path><path d="M552.448 448v180.224a33.28 33.28 0 0 0 66.56 0v-72.192h72.192a29.184 29.184 0 0 0 29.696-29.184 29.696 29.696 0 0 0-29.696-29.184h-72.192v-51.2a120.32 120.32 0 1 0-66.56 0z m33.28-168.448a51.2 51.2 0 1 1-51.2 51.2 51.2 51.2 0 0 1 51.2-51.2z" fill="#333333" p-id="83867"></path></svg>