<?xml version="1.0" standalone="no"?><!DOCTYPE svg PUBLIC "-//W3C//DTD SVG 1.1//EN" "http://www.w3.org/Graphics/SVG/1.1/DTD/svg11.dtd"><svg t="1545818048941" class="icon" style="" viewBox="0 0 1024 1024" version="1.1" xmlns="http://www.w3.org/2000/svg" p-id="110413" xmlns:xlink="http://www.w3.org/1999/xlink" width="2200" height="2200"><defs><style type="text/css"></style></defs><path d="M780 747.4c7.2 7.1 7.2 18.4-0.2 26-6.9 6.7-18.2 6.7-25.6-0.4L641.8 660.9c-6.9-7.1-6.9-18.4 0.4-25.8 6.9-6.9 18.7-6.9 26 0L780 747.4z m-49.7-632.8c11.7 0 23.6 0.9 35.4 3.7 12.4 2.2 23.6 5.9 34.5 10.4 15.2 6.5 22.6 24.5 15.8 40.1-1.5 3.5-3.6 6.8-6.3 9.5-23.2 23.2-46.4 46.2-69.4 69.4l3.9 13.9 3.5 14.1 14.3 3.9 13.9 3.7c23-23.2 46.2-46 69.4-69.4 11.7-11.9 31.2-11.9 43.4 0 3.5 3.7 6.1 8.2 7.4 13 4.2 9.9 7.3 20.2 9.3 30.8v0.4h0.2c2.2 11.1 3.5 23 3.5 35.6 0 48.8-20.2 93.7-52.5 126.2-32.1 32.3-77.2 52.3-126.2 52.3-3.5 0-6.9-0.2-10.4-0.2l-33.8 33.4 186.1 186.1 1.5 1.7c22.7 23.4 35.4 54.8 35.4 87.4 0 32.1-12.1 64.4-36.9 88.9l-0.4 0.4c-24.7 24.3-56.4 36.4-88.5 36.4s-64.8-12.1-88.9-36.9L507.8 683.2 317.6 873.9c-39.7 39.7-87.6 43.2-126.9 26.3-15.2-6.3-28.8-15.8-40.1-27.1h-0.2c-11.3-11.5-20.6-24.9-26.9-39.9-16.9-39.3-13.4-87.4 26.5-126.9v-0.4l212.1-212.1-77.7-77.8-69-20.6c-8.8-2.5-15.9-8.8-19.5-17.1l-66.1-155.1c-6.1-11.3-4.1-26 5.4-35.6l27.8-27.5 27.3-27.3c8.5-8.5 21.7-11.7 33.4-6.5l157 67c8.5 3.5 14.8 10.7 17.4 19.5l20.4 69 77.6 77.6 55.7-55.3c-0.2-3.9-0.4-7.6-0.4-10.4h0.2c0-49.7 20-94.6 52.3-126.7v-0.2c32.3-32.1 77.2-52.2 126.4-52.2z m-87.6 434.2l-91.5 91.5 186.1 186.1c12.4 12.6 29.5 19.1 46 19.1s33.2-6.5 45.6-18.9l0.4-0.2c12.6-12.1 18.4-29.3 18.4-45.8 0-16.1-5.9-32.3-17.6-44.5L642.7 548.8zM405 450.7l47.9-47.7-83.1-83.3c-4.1-4.2-7-9.4-8.2-15.2l-18-60.9-124.9-52.7-12.8 12.6-12.8 13 53.1 124.9 62.9 18.4c5.2 1.5 9.5 4.1 13 8l82.9 82.9z m321-275c-29.8 1.1-58 13.5-78.9 34.7-22.3 22-34.8 52-34.7 83.3h0.4v8.5l0.9 7.2c2.2 9.5-0.9 19.9-8.2 27.5l-412.4 412h-0.2c-19.1 19.7-21.3 42.1-13.4 60.5 3.3 7.1 8.2 14.3 14.1 20.4 6.3 6.1 13.2 10.8 20.8 14.1 18.4 8 40.6 5.9 60.1-13.2l211.2-211.2 0.9-0.9L621 483.9l0.9-1.1 64.6-64.2h0.2c6.3-6.9 16.1-10.4 25.8-8.9 3 0.4 5.9 0.9 9.1 0.9 2.2 0.2 5.2 0.4 8.7 0.4 32.5 0 62-13.2 83.3-34v-0.4c20.2-19.9 33-47.9 34.1-79-13.2 13.4-26.5 26.5-39.7 40.1-7.6 8.5-19.1 11.9-30.8 9.3l-30.8-8.5-31.2-8.5c-10.4-2.8-18.9-10.4-21.7-21.7l-8.2-31.2-8.5-31.2c-2.4-9.5-0.2-21.3 8-28.8 13.6-13.8 27.3-27.5 41.2-41.4z m0 0" p-id="110414"></path></svg>