<?xml version="1.0" standalone="no"?><!DOCTYPE svg PUBLIC "-//W3C//DTD SVG 1.1//EN" "http://www.w3.org/Graphics/SVG/1.1/DTD/svg11.dtd"><svg t="1545880325746" class="icon" style="" viewBox="0 0 1024 1024" version="1.1" xmlns="http://www.w3.org/2000/svg" p-id="55339" xmlns:xlink="http://www.w3.org/1999/xlink" width="2200" height="2200"><defs><style type="text/css"></style></defs><path d="M328.278552 1023.972181a75.488652 75.488652 0 0 1-77.536104-76.200808v-96.519541h-36.186482a102.795425 102.795425 0 0 1-103.374053-101.63817v-647.751385a102.81768 102.81768 0 0 1 103.374053-101.615915h594.428623a102.81768 102.81768 0 0 1 103.374052 101.615915v647.751385a102.795425 102.795425 0 0 1-103.374052 101.615915h-36.186483v96.519541a75.488652 75.488652 0 0 1-77.536103 76.223063z m317.889121-48.248643h51.675899a24.191086 24.191086 0 0 0 25.83795-25.392851v-96.519541h-77.513849z m-343.749326-25.415106a27.573832 27.573832 0 0 0 25.83795 25.392851h214.537324v-121.912392h-240.375274z m-139.560535-848.446155v647.751385a51.386585 51.386585 0 0 0 51.675899 50.807957h594.428623a51.386585 51.386585 0 0 0 51.675899-50.807957v-647.751385a51.40884 51.40884 0 0 0-51.675899-50.785703h-594.406368a51.40884 51.40884 0 0 0-51.698154 50.785703z m503.984672 543.620665a45.911878 45.911878 0 0 1 46.51276-45.733838 45.911878 45.911878 0 0 1 46.51276 45.733838 45.934132 45.934132 0 0 1-46.51276 45.711583 45.934132 45.934132 0 0 1-46.51276-45.711583z m-199.025652 0a45.911878 45.911878 0 0 1 46.51276-45.733838 45.911878 45.911878 0 0 1 46.51276 45.733838 45.934132 45.934132 0 0 1-46.51276 45.711583 45.934132 45.934132 0 0 1-46.490505-45.711583z m-196.399573 0a45.911878 45.911878 0 0 1 46.51276-45.733838 45.911878 45.911878 0 0 1 46.51276 45.733838 45.934132 45.934132 0 0 1-46.51276 45.711583 45.934132 45.934132 0 0 1-46.51276-45.711583z m395.425225-170.205545a45.934132 45.934132 0 0 1 46.51276-45.711583 45.934132 45.934132 0 0 1 46.51276 45.711583 45.934132 45.934132 0 0 1-46.51276 45.733838 45.934132 45.934132 0 0 1-46.51276-45.733838z m-199.025652 0a45.934132 45.934132 0 0 1 46.51276-45.711583 45.934132 45.934132 0 0 1 46.51276 45.711583 45.934132 45.934132 0 0 1-46.51276 45.733838 45.934132 45.934132 0 0 1-46.490505-45.733838z m-196.399573 0a45.934132 45.934132 0 0 1 46.51276-45.711583 45.934132 45.934132 0 0 1 46.51276 45.711583 45.934132 45.934132 0 0 1-46.51276 45.733838 45.934132 45.934132 0 0 1-46.51276-45.733838z m46.51276-116.838273a75.488652 75.488652 0 0 1-77.536104-76.200809v-76.200809a75.488652 75.488652 0 0 1 77.536104-76.223063h390.284341a75.488652 75.488652 0 0 1 77.536103 76.223063v76.200809a75.488652 75.488652 0 0 1-77.536103 76.200809z m-25.83795-152.401618v76.200809a24.213341 24.213341 0 0 0 25.83795 25.392852h390.284341a24.213341 24.213341 0 0 0 25.837949-25.392852v-76.200809a24.235596 24.235596 0 0 0-25.837949-25.415106h-390.262086a24.213341 24.213341 0 0 0-25.860205 25.392852z" fill="#2c2c2c" p-id="55340"></path></svg>