<?xml version="1.0" standalone="no"?><!DOCTYPE svg PUBLIC "-//W3C//DTD SVG 1.1//EN" "http://www.w3.org/Graphics/SVG/1.1/DTD/svg11.dtd"><svg t="1545881337948" class="icon" style="" viewBox="0 0 1024 1024" version="1.1" xmlns="http://www.w3.org/2000/svg" p-id="81258" xmlns:xlink="http://www.w3.org/1999/xlink" width="2200" height="2200"><defs><style type="text/css"></style></defs><path d="M960.512 63.488H64.512C28.672 63.488 0 92.16 0 128v704.512c0 35.84 28.672 63.488 63.488 63.488h896c35.84 0 63.488-28.672 63.488-63.488V128c1.024-35.84-27.648-64.512-62.464-64.512z m0 130.048l-276.48 142.336-92.16-207.872h369.664v65.536zM358.4 502.784L191.488 128h328.704l105.472 236.544L358.4 502.784z m293.888-78.848l182.272 408.576H504.832L384 561.152l268.288-137.216zM121.856 128l179.2 403.456L64.512 653.312V128h57.344zM64.512 724.992L327.68 589.824l107.52 241.664H64.512V724.992z m839.68 106.496l-194.56-438.272 250.88-129.024v566.272h-56.32z" p-id="81259"></path></svg>