<?xml version="1.0" standalone="no"?><!DOCTYPE svg PUBLIC "-//W3C//DTD SVG 1.1//EN" "http://www.w3.org/Graphics/SVG/1.1/DTD/svg11.dtd"><svg t="1544060297274" class="icon" style="" viewBox="0 0 1024 1024" version="1.1" xmlns="http://www.w3.org/2000/svg" p-id="2423" xmlns:xlink="http://www.w3.org/1999/xlink" width="500" height="500"><defs><style type="text/css"></style></defs><path d="M129.522 446.705c0-49.815 26.28-60.030 59.13-22.5 0 0 288.045 333.9 323.37 333.9 35.325 0 327.69-381.195 327.69-381.195 30.285-39.015 54.81-30.015 54.81 19.35v462.24s-168.435 100.395-218.565 100.395c-50.13 0-324.495-87.3-324.495-87.3-23.175-7.2-59.85-3.105-81 8.685l-101.88 56.88c-21.6 12.060-39.060 1.755-39.060-23.49v-466.92zM512.022 692s-247.5-238.815-247.5-378 110.79-252 247.5-252 247.5 112.815 247.5 252c0 139.185-247.5 378-247.5 378zM512.022 422c62.132 0 112.5-50.368 112.5-112.5s-50.368-112.5-112.5-112.5c-62.132 0-112.5 50.368-112.5 112.5 0 62.132 50.368 112.5 112.5 112.5z" p-id="2424"></path></svg>