<?xml version="1.0" standalone="no"?><!DOCTYPE svg PUBLIC "-//W3C//DTD SVG 1.1//EN" "http://www.w3.org/Graphics/SVG/1.1/DTD/svg11.dtd"><svg t="1545880932863" class="icon" style="" viewBox="0 0 1024 1024" version="1.1" xmlns="http://www.w3.org/2000/svg" p-id="75332" xmlns:xlink="http://www.w3.org/1999/xlink" width="2200" height="2200"><defs><style type="text/css"></style></defs><path d="M82.00192 720c-38.00064 0-72.00256 32-72.00256 70.00064s34.00192 72.00256 72.00256 72.00256 70.00064-34.00192 70.00064-72.00256-32-70.00064-70.00064-70.00064zM82.00192 376.00256c-38.00064 0-72.00256 32-72.00256 70.00064s34.00192 70.00064 72.00256 70.00064 70.00064-32 70.00064-70.00064-32-70.00064-70.00064-70.00064zM338.00192 166.00064h605.99808c35.99872 0 66.00192-28.00128 66.00192-64s-29.99808-66.00192-66.00192-66.00192H338.00192c-35.99872 0-66.00192 29.99808-66.00192 66.00192s29.99808 64 66.00192 64zM82.00192 29.99808c-38.00064 0-72.00256 34.00192-72.00256 72.00256s34.00192 70.00064 72.00256 70.00064 70.00064-32 70.00064-70.00064-32-72.00256-70.00064-72.00256zM944 380.00128H338.00192c-35.99872 0-66.00192 29.99808-66.00192 66.00192S301.99808 512 338.00192 512h605.99808c35.99872 0 66.00192-29.99808 66.00192-66.00192s-30.0032-65.9968-66.00192-65.9968zM944 723.99872H338.00192c-35.99872 0-66.00192 29.99808-66.00192 66.00192s29.99808 66.00192 66.00192 66.00192h605.99808c35.99872 0 66.00192-29.99808 66.00192-66.00192s-30.0032-66.00192-66.00192-66.00192z" p-id="75333"></path></svg>