<?xml version="1.0" standalone="no"?><!DOCTYPE svg PUBLIC "-//W3C//DTD SVG 1.1//EN" "http://www.w3.org/Graphics/SVG/1.1/DTD/svg11.dtd"><svg t="1625714455287" class="icon" viewBox="0 0 1024 1024" version="1.1" xmlns="http://www.w3.org/2000/svg" p-id="2418" xmlns:xlink="http://www.w3.org/1999/xlink" width="32" height="32"><defs><style type="text/css"></style></defs><path d="M712.7 743.67l0.39-0.1-0.78 0.09-1.09 0.05a3 3 0 0 0 1.48-0.04z" p-id="2419"></path><path d="M512 65C265.13 65 65 265.13 65 512s200.13 447 447 447 447-200.13 447-447S758.87 65 512 65zM381.28 389.54l14.28-14.42 61.77-62.35L496 273.71c8.25-8.33 22.36-8.23 30.61 0L541 288l62.54 62.37 39.24 39.13c8.57 8.54 7.92 22 0 30.6s-22.58 8-30.61 0l-14.36-14.32-62.55-62.37-2.26-2.25v239.33c0 12.13-9.91 21.12-21.64 21.64s-21.64-10.32-21.64-21.64V341.61l-39.11 39.47-38.71 39.06c-8.51 8.6-22 7.91-30.6 0s-8-22.55-0.02-30.6zM764.58 690c-0.33 29.39-22.59 55.69-54.84 64-9.33 2.39-18.83 2.57-28.41 2.57H336.26c-25.15 0-47.28-10.09-62.42-27.55-11.24-13-14.53-28.56-14.53-44.43V535.86c0-10.3 9.94-19 21.64-19h79.57c12.13 0 21.11 8.71 21.64 19s-10.32 19-21.64 19H302.6v67.52c0 22.44-0.2 44.9 0 67.34v1.88c0 0.27 0.1 1.18 0.17 2s0.32 1.69 0.41 2a43.5 43.5 0 0 0 1.72 5.17v0.06c1.34 2.1 2.52 4.23 4.07 6.24 0.23 0.25 0.45 0.54 0.68 0.75 1.07 1 2.1 2 3.23 3 0.2 0.16 0.43 0.33 0.67 0.5 0.15-0.08 0.86 0.24 1.84 1.27l0.94 0.72q2.19 1.26 4.52 2.33c0.38 0.18 0.77 0.33 1.15 0.5 2.56 0.69 5.05 1.51 7.7 2l1.13 0.16c1.39 0.1 2.78 0.14 4.17 0.15h353.83c0.92 0 1.85 0 2.77-0.07-0.28-0.11 0.32-0.34 2.5-0.28 2.59-0.54 5.08-1.24 7.62-1.93l0.74-0.29q2.1-0.93 4.1-2L708 713c0.23-0.21 2.09-1.47 2.55-1.85 1.14-0.94 2.24-1.92 3.28-2.94 0.23-0.22 0.59-0.68 1-1.06 1.46-2 2.77-4 4.06-6.06 0.07-0.14 0.14-0.28 0.19-0.41 0.53-1.33 1-2.67 1.39-4s0.58-2.81 1-4.18c-0.17 0.58-0.31 1-0.42 1.43-0.3 1.35-0.64 2.26 0 0a11.9 11.9 0 0 0 0.28-1.78v-2.39V554.87h-57.96c-12.13 0-21.12-8.71-21.64-19s10.32-19 21.64-19h79.57c11.72 0 21.64 8.73 21.64 19v88.88c0 21.72 0.25 43.47 0 65.25z" p-id="2420"></path><path d="M294.72 737.18c-0.08-0.12-0.17-0.22-0.25-0.33h-0.05q0.16 0.15 0.3 0.33zM293 735.81l1.46 1a21.09 21.09 0 0 0-2.35-2c-0.18 0.07 0.06 0.47 0.89 1zM715.05 743.41h-1.06c-0.32 0-0.59 0.15-0.9 0.21a10.49 10.49 0 0 1 1.96-0.21z" p-id="2421"></path></svg>