<?xml version="1.0" standalone="no"?><!DOCTYPE svg PUBLIC "-//W3C//DTD SVG 1.1//EN" "http://www.w3.org/Graphics/SVG/1.1/DTD/svg11.dtd"><svg t="1545883480816" class="icon" style="" viewBox="0 0 1024 1024" version="1.1" xmlns="http://www.w3.org/2000/svg" p-id="17569" xmlns:xlink="http://www.w3.org/1999/xlink" width="2200" height="2200"><defs><style type="text/css"></style></defs><path d="M174.297872 704.453901h-65.361702V1016.737589h225.134752v-50.83688H174.297872V704.453901z m704.453901 145.248227v50.836879h72.624114v43.574468c-7.262411 7.262411-21.787234 14.524823-36.312057 21.787234-14.524823 7.262411-29.049645 7.262411-43.574468 7.262412-21.787234 0-50.836879-7.262411-65.361702-29.049646-21.787234-21.787234-29.049645-50.836879-21.787234-79.886525 0-29.049645 7.262411-58.099291 21.787234-79.886524 14.524823-14.524823 43.574468-29.049645 65.361702-29.049646 14.524823 0 36.312057 7.262411 43.574468 14.524823 14.524823 7.262411 21.787234 21.787234 21.787234 36.312057l65.361702-14.524823c-7.262411-29.049645-21.787234-50.836879-43.574468-65.361702-29.049645-14.524823-58.099291-29.049645-94.411348-21.787234-29.049645 0-50.836879 7.262411-79.886524 14.524822-29.049645 14.524823-50.836879 36.312057-58.099291 58.099291 0 21.787234-7.262411 50.836879-7.262412 79.886525 0 29.049645 7.262411 58.099291 21.787234 79.886525 14.524823 21.787234 29.049645 43.574468 58.099291 58.099291 29.049645 14.524823 58.099291 21.787234 87.148936 21.787234 29.049645 0 50.836879-7.262411 79.886525-14.524823 21.787234-7.262411 43.574468-21.787234 58.099291-36.312057v-123.460993l-145.248227 7.262412zM530.156028 697.191489c-21.787234 0-43.574468 7.262411-72.624113 14.524823-14.524823 7.262411-29.049645 14.524823-43.574468 29.049645-14.524823 14.524823-21.787234 29.049645-29.049646 43.574469-7.262411 21.787234-14.524823 50.836879-14.524822 79.886524 0 43.574468 14.524823 87.148936 43.574468 116.198582 65.361702 58.099291 159.77305 58.099291 225.134752 0 58.099291-65.361702 58.099291-167.035461 0-239.659575-29.049645-29.049645-72.624113-43.574468-108.936171-43.574468z m65.361702 246.921986c-14.524823 14.524823-36.312057 29.049645-65.361702 29.049646-21.787234 0-50.836879-7.262411-65.361702-29.049646-36.312057-50.836879-36.312057-108.93617 0-159.773049 36.312057-36.312057 94.411348-36.312057 130.723404 0 14.524823 21.787234 29.049645 50.836879 21.787235 79.886524 0 21.787234-7.262411 50.836879-21.787235 79.886525z m152.510639-726.241135H152.510638v72.624114h595.517731V217.87234zM152.510638 508.368794h595.517731V435.744681H152.510638v72.624113z m-43.574468-435.744681h668.141844c21.787234 0 43.574468 14.524823 43.574468 36.312057V653.617021h72.624114V123.460993c0-65.361702-50.836879-116.198582-116.198582-123.460993H108.93617C50.836879 7.262411 0 58.099291 0 123.460993V1016.737589h72.624113V108.93617c0-21.787234 14.524823-36.312057 36.312057-36.312057z" p-id="17570"></path></svg>