<?xml version="1.0" standalone="no"?><!DOCTYPE svg PUBLIC "-//W3C//DTD SVG 1.1//EN" "http://www.w3.org/Graphics/SVG/1.1/DTD/svg11.dtd"><svg t="1545882040810" class="icon" style="" viewBox="0 0 1024 1024" version="1.1" xmlns="http://www.w3.org/2000/svg" p-id="2284" xmlns:xlink="http://www.w3.org/1999/xlink" width="2200" height="2200"><defs><style type="text/css"></style></defs><path d="M711.389922 289.007581c24.351494 0 45.505178-19.763495 45.505178-44.153849L756.8951 44.177666C756.8951 19.782298 735.741416 0 711.389922 0c-24.370297 0-44.113735 19.782298-44.113735 44.177666l0 200.676066C667.276187 269.244086 687.019625 289.007581 711.389922 289.007581L711.389922 289.007581zM623.314131 111.227636 399.96633 111.227636l0 66.702736 223.347801 0L623.314131 111.227636 623.314131 111.227636zM884.625743 111.227636 801.616807 111.227636l0 66.335445 86.186689 0c25.350575 0 46.743687 21.433226 46.743687 46.807618l0 154.363601L88.757096 378.7343 88.757096 224.370699c0-25.369378 21.394366-46.807618 46.743687-46.807618L222.250316 177.563081 222.250316 111.227636 139.374257 111.227636C75.105919 111.227636 22.534471 163.886833 22.534471 228.26423l0 678.724247c0 64.357341 50.637218 117.011523 114.900542 117.011523l747.19073 0c64.244521 0 116.839787-52.654183 116.839787-117.011523L1001.465529 228.26423C1001.465529 163.886833 948.870264 111.227636 884.625743 111.227636L884.625743 111.227636zM934.547183 910.425715c0 25.369378-21.393112 46.807618-46.743687 46.807618L135.500783 957.233333c-25.349321 0-46.743687-21.43824-46.743687-46.807618L88.757096 445.201368l845.790086 0L934.547183 910.425715 934.547183 910.425715zM265.929069 645.505129c36.984787 0 66.942164-30.026322 66.942164-67.07504 0-37.023647-29.957377-67.049969-66.942164-67.049969-36.959716 0-66.942164 30.026322-66.942164 67.049969C198.986905 615.478807 228.969353 645.505129 265.929069 645.505129L265.929069 645.505129zM511.062343 645.505129c36.959716 0 66.942164-30.026322 66.942164-67.07504 0-37.023647-29.977434-67.049969-66.942164-67.049969-36.979773 0-66.943418 30.026322-66.943418 67.049969C444.118926 615.478807 474.08257 645.505129 511.062343 645.505129L511.062343 645.505129zM264.734434 890.726152c36.979773 0 66.942164-30.026322 66.942164-67.049969 0-37.048718-29.962391-67.07504-66.942164-67.07504-36.959716 0-66.942164 30.026322-66.942164 67.07504C197.79227 860.699829 227.774718 890.726152 264.734434 890.726152L264.734434 890.726152zM511.062343 890.726152c36.959716 0 66.942164-30.026322 66.942164-67.049969 0-37.048718-29.977434-67.07504-66.942164-67.07504-36.979773 0-66.943418 30.026322-66.943418 67.07504C444.118926 860.699829 474.08257 890.726152 511.062343 890.726152L511.062343 890.726152zM755.852145 645.505129c36.96097 0 66.943418-30.026322 66.943418-67.07504 0-37.023647-29.982448-67.049969-66.943418-67.049969-36.984787 0-66.942164 30.026322-66.942164 67.049969C688.909981 615.478807 718.867357 645.505129 755.852145 645.505129L755.852145 645.505129zM310.650777 289.007581c24.351494 0 45.505178-19.763495 45.505178-44.153849L356.155955 44.177666C356.155955 19.782298 335.002271 0 310.650777 0c-24.371551 0-44.114989 19.782298-44.114989 44.177666l0 200.676066C266.535788 269.244086 286.279226 289.007581 310.650777 289.007581L310.650777 289.007581zM310.650777 289.007581" p-id="2285"></path></svg>