<?xml version="1.0" standalone="no"?><!DOCTYPE svg PUBLIC "-//W3C//DTD SVG 1.1//EN" "http://www.w3.org/Graphics/SVG/1.1/DTD/svg11.dtd"><svg t="1545879390501" class="icon" style="" viewBox="0 0 1024 1024" version="1.1" xmlns="http://www.w3.org/2000/svg" p-id="36722" xmlns:xlink="http://www.w3.org/1999/xlink" width="2200" height="2200"><defs><style type="text/css"></style></defs><path d="M920.146 683.175V534.363c0-58.158-47.894-106.051-106.051-106.051H533.57v-92.369c59.868-15.395 104.343-70.132 104.343-135.13 0-76.975-63.287-138.551-138.55-138.551-76.974 0-138.549 63.287-138.549 138.551 0 64.999 44.47 119.736 104.338 135.13v92.369H212c-58.156 0-106.055 47.894-106.055 106.051v148.812C46.082 698.568 1.607 753.307 1.607 818.307c0 76.97 63.287 138.55 138.551 138.55 76.973 0 138.549-63.292 138.549-138.55 0-65-44.474-119.738-104.337-135.132V534.363c0-20.526 17.101-37.633 37.63-37.633h253.151v188.157c-59.868 15.394-104.338 70.124-104.338 135.125 0 76.976 63.288 138.551 138.549 138.551 76.97 0 138.55-63.287 138.55-138.551 0-65.001-44.475-119.731-104.343-135.125V496.73h280.524c20.526 0 37.632 17.106 37.632 37.633v148.812c-59.869 15.394-104.344 70.132-104.344 135.132 0 76.97 63.293 138.55 138.556 138.55 76.969 0 138.55-63.292 138.55-138.55 0.001-66.712-44.473-119.739-104.341-135.132zM429.233 200.813c0-39.345 32.499-70.132 70.13-70.132 37.632 0 70.132 32.5 70.132 70.132 0 39.343-32.5 70.13-70.132 70.13-37.631 0-70.13-32.5-70.13-70.13zM210.289 816.592c0 39.346-32.5 70.133-70.13 70.133-37.631 0-70.132-30.787-70.132-70.133 0-39.341 32.501-70.129 70.132-70.129 37.63 0 70.13 32.5 70.13 70.129z m360.913 0c0 39.346-32.495 70.133-70.126 70.133s-70.132-32.499-70.132-70.133c0-39.341 32.501-70.129 70.132-70.129s70.126 32.5 70.126 70.129z m314.736 71.841c-39.343 0-70.132-32.495-70.132-70.126 0-39.344 32.5-70.131 70.132-70.131s70.126 32.5 70.126 70.131-30.788 70.126-70.126 70.126z m0 0" fill="" p-id="36723"></path></svg>