<?xml version="1.0" standalone="no"?><!DOCTYPE svg PUBLIC "-//W3C//DTD SVG 1.1//EN" "http://www.w3.org/Graphics/SVG/1.1/DTD/svg11.dtd"><svg t="1543464754864" class="icon" style="" viewBox="0 0 1024 1024" version="1.1" xmlns="http://www.w3.org/2000/svg" p-id="33877" xmlns:xlink="http://www.w3.org/1999/xlink" width="500" height="500"><defs><style type="text/css"></style></defs><path d="M769.238756 762.88l-12.572445 3.413333a56.888889 56.888889 0 1 1-29.354667-109.966222l156.899556-41.870222a56.888889 56.888889 0 0 1 69.745778 40.561778l38.229333 146.659555a56.888889 56.888889 0 0 1-110.08 28.728889l-4.209778-16.213333A489.358222 489.358222 0 0 1 29.284978 568.547556a56.888889 56.888889 0 1 1 112.241778-18.318223A375.580444 375.580444 0 0 0 769.238756 762.88zM283.919644 191.032889a56.888889 56.888889 0 0 1 25.998223 110.421333l-166.115556 52.167111A56.888889 56.888889 0 0 1 71.212089 311.751111L32.300089 136.533333a56.888889 56.888889 0 1 1 111.104-24.632889l9.898667 44.714667a489.358222 489.358222 0 0 1 841.557333 252.757333 56.888889 56.888889 0 0 1-112.298667 18.432A375.580444 375.580444 0 0 0 283.976533 191.032889z" p-id="33878"></path></svg>