<?xml version="1.0" standalone="no"?><!DOCTYPE svg PUBLIC "-//W3C//DTD SVG 1.1//EN" "http://www.w3.org/Graphics/SVG/1.1/DTD/svg11.dtd"><svg t="1543473558271" class="icon" style="" viewBox="0 0 1024 1024" version="1.1" xmlns="http://www.w3.org/2000/svg" p-id="36865" xmlns:xlink="http://www.w3.org/1999/xlink" width="500" height="500"><defs><style type="text/css"></style></defs><path d="M886.902716 406.144609h-74.556146v-106.013105C812.34657 134.645533 677.701036 0 512.215066 0S212.069224 134.645533 212.069224 300.131504v106.013105H137.039933a74.642173 74.642173 0 0 0-74.556147 74.556147V949.443853a74.642173 74.642173 0 0 0 74.556147 74.556147h749.862783a74.642173 74.642173 0 0 0 74.556147-74.556147V480.700756a74.642173 74.642173 0 0 0-74.556147-74.556147z m-583.07208-106.013105C303.830636 185.243349 397.312574 91.761411 512.215066 91.761411S720.585158 185.243349 720.585158 300.131504v106.013105H303.830636zM869.697452 932.238589H154.245197V497.906021h715.452255z" p-id="36866"></path><path d="M429.615458 753.791319h166.317558a45.880706 45.880706 0 0 0 0-91.761411h-166.317558a45.880706 45.880706 0 0 0 0 91.761411z" p-id="36867"></path></svg>