<?xml version="1.0" standalone="no"?><!DOCTYPE svg PUBLIC "-//W3C//DTD SVG 1.1//EN" "http://www.w3.org/Graphics/SVG/1.1/DTD/svg11.dtd"><svg t="1545877108021" class="icon" style="" viewBox="0 0 1024 1024" version="1.1" xmlns="http://www.w3.org/2000/svg" p-id="26958" xmlns:xlink="http://www.w3.org/1999/xlink" width="2200" height="2200"><defs><style type="text/css"></style></defs><path d="M884.912 368.651H138.906c-41.225 0-74.766 33.541-74.766 74.766v441.757c0 41.225 33.541 74.766 74.766 74.766h746.006c41.229 0 74.77-33.541 74.77-74.766V443.416c0-41.225-33.541-74.765-74.77-74.765z m8.402 516.523c0 4.63-3.767 8.397-8.401 8.397H138.906c-4.63 0-8.397-3.767-8.397-8.397V443.416c0-4.63 3.767-8.397 8.397-8.397h746.006c4.634 0 8.401 3.767 8.401 8.397v441.758z" p-id="26959"></path><path d="M823.911 540.113c0-13.744-11.144-24.888-24.888-24.888H224.8c-13.744 0-24.888 11.144-24.888 24.888 0 13.744 11.144 24.888 24.888 24.888h574.223c13.744 0.001 24.888-11.143 24.888-24.888zM816.413 787.314h-17.39c-18.326 0-33.184 14.858-33.184 33.184s14.858 33.184 33.184 33.184h17.39c18.326 0 33.184-14.858 33.184-33.184s-14.858-33.184-33.184-33.184zM683.141 787.314h-17.394c-18.326 0-33.184 14.858-33.184 33.184s14.858 33.184 33.184 33.184h17.394c18.326 0 33.184-14.858 33.184-33.184s-14.858-33.184-33.184-33.184zM549.865 787.314h-17.394c-18.326 0-33.184 14.858-33.184 33.184s14.858 33.184 33.184 33.184h17.394c18.326 0 33.184-14.858 33.184-33.184s-14.858-33.184-33.184-33.184zM319.005 218.803c16.584 7.786 36.352 0.652 44.138-15.944l33.184-70.703 436.204 202.95a33.031 33.031 0 0 0 13.979 3.107c12.505 0 24.483-7.105 30.106-19.193 7.733-16.616 0.531-36.356-16.086-44.085L419.494 69.733c-14.708-6.903-31.224-7.662-46.507-2.143-15.284 5.521-27.501 16.665-34.395 31.37l-35.53 75.706c-7.786 16.587-0.649 36.351 15.943 44.137zM171.604 352.674c17.414 5.744 36.17-3.719 41.91-21.121l14.117-42.805 199.284 65.729a33.155 33.155 0 0 0 10.398 1.677c13.935 0 26.91-8.847 31.511-22.798 5.74-17.406-3.715-36.17-21.121-41.91l-211.072-69.613c-28.279-9.317-58.83 6.096-68.143 34.343l-18.006 54.589c-5.739 17.406 3.716 36.169 21.122 41.909z" p-id="26960"></path></svg>