<?xml version="1.0" standalone="no"?><!DOCTYPE svg PUBLIC "-//W3C//DTD SVG 1.1//EN" "http://www.w3.org/Graphics/SVG/1.1/DTD/svg11.dtd"><svg t="1564023714565" class="icon" viewBox="0 0 1024 1024" version="1.1" xmlns="http://www.w3.org/2000/svg" p-id="1180" xmlns:xlink="http://www.w3.org/1999/xlink" width="200" height="200"><defs><style type="text/css"></style></defs><path d="M711.111111 625.777778 665.6 625.777778 648.533333 608.711111C705.422222 546.133333 739.555556 460.8 739.555556 369.777778 739.555556 164.977778 574.577778 0 369.777778 0 164.977778 0 0 164.977778 0 369.777778 0 574.577778 164.977778 739.555556 369.777778 739.555556 460.8 739.555556 546.133333 705.422222 608.711111 648.533333L625.777778 665.6 625.777778 711.111111 910.222222 995.555556 995.555556 910.222222 711.111111 625.777778 711.111111 625.777778ZM369.777778 625.777778C227.555556 625.777778 113.777778 512 113.777778 369.777778 113.777778 227.555556 227.555556 113.777778 369.777778 113.777778 512 113.777778 625.777778 227.555556 625.777778 369.777778 625.777778 512 512 625.777778 369.777778 625.777778L369.777778 625.777778Z" p-id="1181" fill="#ffffff"></path></svg>