<?xml version="1.0" standalone="no"?><!DOCTYPE svg PUBLIC "-//W3C//DTD SVG 1.1//EN" "http://www.w3.org/Graphics/SVG/1.1/DTD/svg11.dtd"><svg t="1617272758758" class="icon" viewBox="0 0 1024 1024" version="1.1" xmlns="http://www.w3.org/2000/svg" p-id="10296" xmlns:xlink="http://www.w3.org/1999/xlink" width="48" height="48"><defs><style type="text/css"></style></defs><path d="M960 288c-44.8-83.2-108.8-153.6-185.6-204.8C697.6 32 608 6.4 512 6.4 422.4 6.4 326.4 32 249.6 83.2 172.8 128 102.4 198.4 64 281.6 19.2 364.8 0 460.8 6.4 550.4c6.4 89.6 38.4 179.2 96 256 19.2 25.6 44.8 32 70.4 12.8 25.6-19.2 32-44.8 12.8-70.4-44.8-57.6-70.4-128-76.8-204.8-6.4-76.8 12.8-153.6 44.8-217.6s83.2-121.6 147.2-160c64-38.4 140.8-57.6 211.2-57.6 76.8 0 147.2 19.2 211.2 64 64 38.4 115.2 89.6 147.2 160 32 70.4 44.8 140.8 38.4 217.6-6.4 76.8-32 147.2-76.8 204.8-12.8 19.2-6.4 51.2 12.8 70.4 19.2 12.8 51.2 6.4 70.4-12.8 57.6-76.8 89.6-160 96-256 6.4-89.6-6.4-185.6-51.2-268.8z" p-id="10297"></path><path d="M601.6 659.2l-57.6-294.4c-6.4-32-57.6-32-64 0l-57.6 300.8c-57.6 25.6-102.4 89.6-102.4 160 0 102.4 83.2 192 192 192s192-83.2 192-192c0-70.4-44.8-134.4-102.4-166.4z m-89.6 256c-51.2 0-89.6-38.4-89.6-89.6 0-51.2 38.4-89.6 89.6-89.6s89.6 38.4 89.6 89.6c0 51.2-38.4 89.6-89.6 89.6z" p-id="10298"></path></svg>