<?xml version="1.0" standalone="no"?><!DOCTYPE svg PUBLIC "-//W3C//DTD SVG 1.1//EN" "http://www.w3.org/Graphics/SVG/1.1/DTD/svg11.dtd"><svg t="1617273388155" class="icon" viewBox="0 0 1024 1024" version="1.1" xmlns="http://www.w3.org/2000/svg" p-id="14378" xmlns:xlink="http://www.w3.org/1999/xlink" width="48" height="48"><defs><style type="text/css"></style></defs><path d="M511.935354 50.424242L49.066667 339.781818h925.866666L511.935354 50.424242z m260.525252 347.151516l28.961616 57.923232v347.151515h115.717172V455.49899l28.961616-57.923232H772.460606z m-231.563636 0l28.961616 57.923232v347.151515h115.717172V455.49899l28.961616-57.923232H540.89697z m-231.434344 0l28.961616 57.923232v347.151515h115.717172V455.49899l28.961616-57.923232H309.462626z m-231.434343 0l28.961616 57.923232v347.151515h115.717172V455.49899l28.961616-57.923232H78.028283z m0 462.997979L49.066667 976.290909h925.866666l-28.961616-115.717172H78.028283z m491.830303-636.509091c0 31.935354-25.858586 57.923232-57.923232 57.923233-31.935354 0-57.923232-25.858586-57.923233-57.923233s25.858586-57.923232 57.923233-57.923232c32.064646 0 57.923232 25.987879 57.923232 57.923232z" p-id="14379"></path></svg>